<?xml version="1.0" encoding="UTF-8" standalone="no"?><svg xmlns="http://www.w3.org/2000/svg" xmlns:xlink="http://www.w3.org/1999/xlink" contentScriptType="text/ecmascript" fill="#000000" width="421.6" zoomAndPan="magnify" contentStyleType="text/css" viewBox="-1.8 -13.9 421.6 400.4" height="400.4" preserveAspectRatio="xMidYMid meet" version="1"><defs><clipPath id="a"><path d="M 285 70 L 419.78125 70 L 419.78125 287 L 285 287 Z M 285 70"/></clipPath><clipPath id="b"><path d="M 61 207 L 250 207 L 250 386.441406 L 61 386.441406 Z M 61 207"/></clipPath></defs><g><g id="change1_1"><path fill="#f47064" d="M 0 27.148438 C 0.078125 27.121094 0.125 27.09375 0.136719 27.015625 C 0.0546875 26.992188 -0.0078125 26.996094 0 27.148438 Z M 37.734375 147.675781 C 32.375 168.476562 53.480469 179.257812 66.921875 162.429688 C 80.828125 145.027344 89.460938 118.5625 99.59375 98.84375 C 108.886719 80.753906 126.65625 57.933594 130.183594 37.464844 C 134.585938 11.917969 103.878906 0.972656 88.277344 19.425781 C 83.707031 24.832031 80.964844 32.742188 77.789062 38.925781 C 64.019531 65.726562 50.246094 92.53125 36.476562 119.332031 C 28.265625 135.316406 8.300781 161.464844 10.617188 180.832031 C 13.085938 201.441406 36.375 213.46875 54.621094 203.4375 C 64.578125 197.964844 68.691406 187.214844 73.601562 177.65625 C 87.292969 151.007812 100.980469 124.359375 114.671875 97.714844 C 118.085938 91.074219 122.882812 74.921875 128.902344 70.019531 C 136.382812 63.929688 137.054688 68.132812 136.035156 75.230469 C 134.832031 83.609375 126.261719 94.261719 122.4375 101.703125 C 114.484375 117.183594 106.527344 132.664062 98.578125 148.144531 C 87.089844 170.5 75.011719 210.8125 46.265625 215.382812 C 20.917969 219.414062 -1.777344 196.746094 2.121094 171.414062 C 3.539062 162.210938 9.035156 153.648438 13.234375 145.476562 C 28.773438 115.230469 44.3125 84.984375 59.851562 54.738281 C 71.632812 31.804688 86.867188 -13.914062 121.964844 4.117188 C 154.894531 21.035156 131.949219 54.957031 120.597656 77.050781 C 106.714844 104.074219 93.273438 131.378906 78.929688 158.15625 C 74.675781 166.105469 71.542969 173.996094 62.515625 178.03125 C 39.109375 188.5 23.199219 164.058594 29.972656 143.6875 C 37.496094 121.066406 53.003906 98.855469 63.886719 77.671875 C 68.210938 69.257812 72.503906 54.078125 79.304688 47.664062 C 85.800781 41.539062 88.21875 40.824219 87.441406 50.925781 C 86.769531 59.636719 75.65625 73.863281 71.652344 81.660156 C 64.144531 96.273438 56.636719 110.886719 49.128906 125.5 C 45.714844 132.148438 39.628906 140.335938 37.734375 147.675781"/></g><g id="change2_1" clip-path="url(#a)"><path fill="#8acfd4" d="M 414.566406 268.738281 C 401.015625 290.535156 369.023438 292.84375 352.429688 273.308594 C 346.402344 266.210938 343.53125 256.453125 340.101562 247.929688 C 327.417969 216.378906 314.730469 184.828125 302.046875 153.277344 C 292.429688 129.355469 267.851562 87.90625 304.457031 73.1875 C 338.808594 59.378906 349.421875 98.929688 358.6875 121.976562 C 370.023438 150.164062 381.855469 178.199219 392.703125 206.578125 C 395.925781 214.996094 399.839844 222.53125 396.980469 231.996094 C 389.5625 256.542969 360.671875 252.566406 349.710938 234.105469 C 337.539062 213.605469 330.90625 187.339844 322.023438 165.246094 C 318.496094 156.46875 309.832031 143.285156 309.4375 133.945312 C 309.0625 125.023438 310.105469 122.726562 317.234375 129.929688 C 323.375 136.140625 326.851562 153.855469 330.121094 161.988281 C 336.25 177.230469 342.378906 192.472656 348.507812 207.714844 C 351.296875 214.652344 353.496094 224.613281 357.808594 230.847656 C 370.023438 248.519531 391.984375 239.628906 388.070312 218.449219 C 384.023438 196.546875 369.671875 172.691406 361.402344 152.121094 C 353.816406 133.253906 348.207031 104.882812 335.046875 88.808594 C 318.617188 68.753906 290.238281 84.796875 293.96875 108.671875 C 295.0625 115.667969 299.246094 122.917969 301.839844 129.367188 C 313.078125 157.324219 324.320312 185.28125 335.5625 213.238281 C 342.265625 229.914062 348.957031 262.121094 365.109375 273.054688 C 382.300781 284.683594 406.640625 274.960938 411.007812 254.601562 C 413.390625 243.492188 407.960938 233.34375 403.953125 223.371094 C 392.777344 195.578125 381.601562 167.78125 370.425781 139.984375 C 367.640625 133.058594 358.574219 118.855469 358.808594 111.097656 C 359.105469 101.453125 362.722656 103.699219 367.421875 109.117188 C 372.96875 115.511719 375.402344 128.964844 378.523438 136.730469 C 385.015625 152.878906 391.507812 169.023438 398 185.171875 C 407.375 208.492188 429.933594 244.015625 414.566406 268.738281"/></g><g id="change3_1"><path fill="#189f87" d="M 223.484375 254.375 C 186.460938 254.375 191.367188 213.71875 191.367188 188.878906 C 191.367188 158.496094 190.847656 128.070312 191.367188 97.695312 C 191.523438 88.683594 190.699219 80.230469 196.882812 72.515625 C 212.921875 52.507812 238.242188 66.976562 241.527344 88.191406 C 245.175781 111.753906 241.527344 138.59375 241.527344 162.410156 C 241.527344 171.871094 244.644531 187.332031 241.527344 196.144531 C 238.546875 204.5625 236.722656 206.304688 232.800781 196.964844 C 229.417969 188.910156 232.800781 171.175781 232.800781 162.410156 C 232.800781 145.980469 232.800781 129.554688 232.800781 113.125 C 232.800781 105.648438 234.472656 95.589844 232.800781 88.191406 C 228.058594 67.238281 204.363281 67.296875 200.09375 88.40625 C 195.679688 110.238281 200.09375 137.726562 200.09375 159.898438 C 200.09375 180.230469 194.714844 208.648438 200.933594 228.46875 C 208.691406 253.207031 241.003906 248.910156 246.449219 225.363281 C 248.046875 218.46875 246.871094 210.175781 246.871094 203.226562 C 246.871094 173.09375 246.871094 142.960938 246.871094 112.828125 C 246.871094 94.855469 252.679688 62.476562 241.769531 46.308594 C 230.15625 29.105469 203.945312 29.050781 192.300781 46.308594 C 185.945312 55.730469 187.195312 67.171875 187.195312 77.914062 C 187.195312 107.875 187.195312 137.832031 187.195312 167.789062 C 187.195312 175.257812 190.3125 191.816406 187.195312 198.925781 C 183.324219 207.761719 180.804688 204.332031 178.46875 197.550781 C 175.710938 189.546875 178.46875 176.15625 178.46875 167.789062 C 178.46875 150.386719 178.46875 132.984375 178.46875 115.578125 C 178.46875 90.445312 170.792969 49.070312 194.273438 31.867188 C 214.976562 16.695312 245.523438 26.488281 253.628906 50.804688 C 256.574219 59.636719 255.597656 69.765625 255.597656 78.949219 C 255.597656 112.953125 255.597656 146.960938 255.597656 180.964844 C 255.597656 206.75 262.9375 254.375 223.484375 254.375"/></g><g id="change4_1" clip-path="url(#b)"><path fill="#f6a5a5" d="M 248.636719 356.898438 C 242.699219 382.203125 213.511719 394.238281 191.335938 381.003906 C 183.839844 376.53125 177.691406 369.109375 171.574219 362.988281 C 147.40625 338.824219 123.238281 314.65625 99.070312 290.488281 C 81.015625 272.429688 43.804688 244.835938 71.320312 217.320312 C 97.511719 191.128906 122.785156 223.367188 140.34375 240.921875 C 161.199219 261.78125 182.058594 282.640625 202.914062 303.496094 C 209.753906 310.332031 217.140625 316.378906 218.464844 326.671875 C 221.910156 353.378906 192.710938 360.554688 175.367188 346.882812 C 155.511719 331.230469 138.375 309.890625 120.503906 292.019531 C 114.992188 286.507812 101.554688 277.339844 98.582031 270.097656 C 94.3125 259.714844 99.867188 261.523438 106.628906 265.800781 C 128.957031 279.9375 148.621094 307.796875 167.335938 326.507812 C 171.871094 331.046875 176.832031 337.847656 182.242188 341.417969 C 202.65625 354.878906 216.25 333.480469 203.554688 316.476562 C 187.996094 295.644531 164.867188 277.792969 146.496094 259.421875 C 134.503906 247.425781 113.296875 216.652344 94.03125 216.652344 C 70.574219 216.652344 66.164062 241.9375 78 257.074219 C 82.996094 263.464844 89.996094 269.070312 95.714844 274.789062 C 117.449219 296.523438 139.1875 318.257812 160.921875 339.992188 C 174.941406 354.015625 194.164062 381.792969 216.917969 377.375 C 237.875 373.304688 247.035156 349.246094 236.132812 331.675781 C 232.042969 325.085938 224.914062 319.59375 219.507812 314.1875 C 197.679688 292.363281 175.855469 270.535156 154.027344 248.710938 C 150.1875 244.871094 136.980469 235.785156 135.476562 230.15625 C 132.488281 218.96875 139.125 223.484375 144.550781 226.890625 C 166.542969 240.695312 186.160156 268.5 204.503906 286.84375 C 222.59375 304.933594 255.523438 327.546875 248.636719 356.898438"/></g><g id="change5_1"><path fill="#1c4f59" d="M 232.339844 322.898438 C 232.265625 323.171875 232.101562 323.101562 231.898438 323.03125 C 232.003906 322.757812 232.167969 322.832031 232.339844 322.898438 Z M 241.167969 336.070312 C 241.628906 335.898438 241.519531 336.398438 241.441406 336.402344 C 241.253906 336.367188 241.160156 336.257812 241.167969 336.070312 Z M 236.046875 330.007812 C 235.863281 329.914062 235.796875 329.769531 235.832031 329.566406 L 235.554688 329.257812 C 235.84375 329.316406 236.691406 329.597656 236.046875 330.007812 Z M 227.703125 319.089844 C 227.703125 319.089844 227.117188 318.320312 226.988281 318.269531 C 227.675781 318.417969 228.3125 318.839844 228.316406 319.621094 C 227.867188 319.71875 228.078125 319.097656 227.703125 319.089844 Z M 192.484375 284.914062 C 192.285156 284.859375 192.1875 284.730469 192.183594 284.523438 C 192.074219 284.4375 191.964844 284.351562 191.855469 284.269531 C 192.148438 284.28125 193.03125 284.390625 192.484375 284.914062 Z M 183.644531 274.355469 C 183.636719 274.347656 183.058594 273.585938 182.929688 273.535156 C 183.617188 273.683594 184.253906 274.105469 184.253906 274.886719 C 183.808594 274.984375 184.019531 274.363281 183.644531 274.355469 Z M 148.421875 240.179688 C 148.226562 240.125 148.125 239.996094 148.125 239.789062 C 148.015625 239.703125 147.90625 239.617188 147.796875 239.535156 C 148.089844 239.546875 148.972656 239.65625 148.421875 240.179688 Z M 139.585938 229.621094 C 139.574219 229.613281 139 228.851562 138.871094 228.800781 C 139.558594 228.949219 140.195312 229.371094 140.195312 230.152344 C 139.75 230.25 139.960938 229.628906 139.585938 229.621094 Z M 243.984375 349.273438 C 244.015625 349.125 244.101562 348.382812 244.070312 348.132812 C 243.941406 347.15625 243.878906 347.648438 243.367188 346.789062 C 243.46875 346.660156 243.609375 346.609375 243.78125 346.640625 C 243.429688 346.21875 243.871094 345.769531 243.78125 345.335938 C 243.664062 344.863281 243.253906 344.929688 243.042969 344.539062 C 243.347656 343.503906 243.558594 344.863281 243.253906 343.417969 C 243.082031 342.722656 242.800781 341.628906 242.496094 340.980469 C 242.3125 340.535156 241.398438 340.046875 241.351562 339.785156 C 241.277344 339.363281 242.410156 339.394531 242.273438 338.671875 C 241.210938 338.386719 241.960938 338.484375 241.523438 337.535156 C 241.320312 337.070312 240.984375 337.019531 240.882812 336.507812 C 240.75 335.875 240.988281 335.707031 240.800781 334.984375 C 240.433594 335.242188 240.175781 335.15625 240.023438 334.734375 C 240.164062 334.382812 240.121094 334.054688 239.921875 333.75 C 239.523438 334.003906 239.839844 334.574219 239.15625 334.542969 C 239.863281 333.125 238.96875 331.78125 238.1875 330.855469 C 237.847656 330.457031 238.335938 329.554688 237.246094 330.6875 C 236.886719 329.4375 237.273438 329.046875 235.9375 328.566406 C 235.929688 327.777344 236.519531 328.964844 236.109375 327.71875 C 235.996094 327.367188 236.078125 326.964844 235.753906 326.6875 C 234.933594 326.003906 235.191406 326.816406 234.632812 326.632812 C 234.335938 326.390625 234.855469 326.03125 234.515625 325.808594 C 234.375 325.714844 233.917969 326.003906 233.972656 326.09375 C 233.832031 325.878906 233.613281 325.277344 233.621094 325.292969 C 233.550781 325.179688 233.660156 324.515625 233.125 324.414062 C 232.714844 324.566406 233.574219 325.113281 232.785156 325.089844 C 233.25 324.019531 232.0625 323.308594 231.5 323.214844 C 231.796875 322.546875 230.671875 322.261719 230.457031 321.945312 C 230.273438 321.679688 230.210938 322 230.054688 321.496094 C 229.996094 321.316406 230.375 320.964844 230.25 320.578125 C 230.015625 319.863281 226.542969 316.835938 225.839844 317.976562 C 226.027344 316.632812 224.511719 314.597656 224.511719 314.597656 C 224.511719 314.597656 223.558594 314.152344 223.265625 313.835938 C 223.015625 313.5625 222.820312 313.425781 222.59375 313.132812 C 222.085938 312.476562 222.46875 312.859375 222.164062 312.214844 C 221.492188 312.859375 220.691406 311.238281 219.960938 311.261719 C 219.839844 310.527344 220.074219 310.847656 219.632812 310.171875 C 219.210938 309.515625 218.15625 308.601562 217.59375 308.027344 C 217.421875 307.703125 217.199219 307.421875 216.914062 307.183594 C 216.574219 307.070312 216.238281 307.117188 215.914062 307.332031 C 215.691406 307.199219 215.0625 306.273438 214.835938 306.003906 C 214.578125 305.695312 214.445312 305.332031 214.210938 305.019531 C 214.277344 304.734375 214.207031 304.492188 214.003906 304.292969 C 213.574219 304.222656 213.171875 304.085938 212.804688 303.875 C 212.390625 303.625 212.074219 303.28125 211.855469 302.851562 C 211.996094 302.6875 212.046875 302.503906 211.996094 302.296875 C 211.699219 301.847656 210.863281 301.90625 210.640625 301.75 C 210.554688 301.613281 210.703125 301.191406 210.578125 301.085938 C 210.324219 300.871094 209.894531 300.820312 209.59375 300.570312 C 209.425781 300.425781 208.808594 300.039062 208.71875 299.878906 C 208.546875 299.5625 208.835938 299.144531 208.632812 298.839844 C 208.464844 298.589844 208.183594 298.789062 208.085938 298.664062 C 207.996094 298.550781 207.59375 297.957031 207.414062 297.796875 C 206.710938 297.171875 206.953125 297.59375 206.039062 297.265625 C 206.042969 297.097656 206.121094 296.972656 206.273438 296.890625 C 205.753906 296.785156 205.832031 296.171875 205.511719 295.898438 C 205.160156 295.59375 204.867188 295.886719 204.476562 295.691406 C 204.160156 294.683594 205.070312 295.660156 204.046875 294.667969 C 203.546875 294.1875 202.757812 293.433594 202.207031 293.011719 C 201.835938 292.730469 200.8125 292.71875 200.652344 292.503906 C 200.40625 292.160156 201.429688 291.683594 201.007812 291.117188 C 199.941406 291.316406 200.648438 291.082031 199.890625 290.414062 C 199.523438 290.089844 199.207031 290.160156 198.925781 289.734375 C 198.578125 289.207031 198.738281 288.972656 198.339844 288.367188 C 198.078125 288.734375 197.808594 288.746094 197.53125 288.402344 C 197.550781 288.035156 197.417969 287.738281 197.140625 287.515625 C 196.835938 287.878906 197.308594 288.316406 196.652344 288.503906 C 196.882812 286.945312 195.703125 285.96875 194.742188 285.269531 C 194.328125 284.964844 194.617188 283.984375 193.800781 285.328125 C 193.175781 284.1875 193.503906 283.746094 192.113281 283.519531 C 191.984375 282.753906 192.738281 283.808594 192.15625 282.664062 C 191.992188 282.34375 192.027344 281.941406 191.679688 281.71875 C 190.816406 281.167969 191.140625 281.921875 190.578125 281.8125 C 190.269531 281.617188 190.722656 281.179688 190.429688 281.046875 C 190.34375 281.007812 189.847656 281.257812 189.914062 281.359375 C 189.773438 281.144531 189.550781 280.542969 189.5625 280.558594 C 189.492188 280.445312 189.601562 279.78125 189.0625 279.679688 C 188.652344 279.832031 189.515625 280.378906 188.726562 280.351562 C 189.1875 279.285156 188.003906 278.574219 187.441406 278.480469 C 187.734375 277.8125 186.613281 277.527344 186.398438 277.214844 C 186.214844 276.945312 186.152344 277.265625 185.992188 276.761719 C 185.9375 276.585938 186.316406 276.230469 186.191406 275.84375 C 185.953125 275.128906 182.484375 272.101562 181.78125 273.238281 C 181.96875 271.898438 180.453125 269.863281 180.453125 269.863281 C 180.453125 269.863281 179.496094 269.417969 179.203125 269.101562 C 178.953125 268.828125 178.761719 268.691406 178.535156 268.398438 C 178.023438 267.738281 178.410156 268.121094 178.105469 267.480469 C 177.433594 268.125 176.632812 266.503906 175.902344 266.527344 C 175.777344 265.792969 176.015625 266.113281 175.574219 265.4375 C 175.152344 264.78125 174.097656 263.867188 173.53125 263.296875 C 173.363281 262.964844 173.136719 262.683594 172.855469 262.449219 C 172.515625 262.335938 172.179688 262.382812 171.855469 262.597656 C 171.632812 262.464844 171.003906 261.539062 170.777344 261.269531 C 170.519531 260.964844 170.382812 260.597656 170.152344 260.285156 C 170.21875 260 170.148438 259.757812 169.941406 259.554688 C 169.515625 259.488281 169.113281 259.351562 168.742188 259.136719 C 168.332031 258.890625 168.015625 258.546875 167.796875 258.117188 C 167.9375 257.953125 167.984375 257.769531 167.9375 257.5625 C 167.636719 257.113281 166.804688 257.171875 166.578125 257.015625 C 166.496094 256.878906 166.644531 256.453125 166.519531 256.351562 C 166.265625 256.136719 165.832031 256.085938 165.535156 255.835938 C 165.367188 255.691406 164.75 255.304688 164.660156 255.144531 C 164.488281 254.828125 164.777344 254.410156 164.570312 254.105469 C 164.402344 253.855469 164.125 254.054688 164.023438 253.929688 C 163.9375 253.816406 163.535156 253.222656 163.355469 253.0625 C 162.648438 252.433594 162.894531 252.859375 161.980469 252.53125 C 161.984375 252.363281 162.0625 252.238281 162.214844 252.15625 C 161.691406 252.050781 161.773438 251.433594 161.453125 251.164062 C 161.097656 250.859375 160.804688 251.152344 160.417969 250.957031 C 160.101562 249.949219 161.011719 250.925781 159.984375 249.933594 C 159.488281 249.453125 158.699219 248.699219 158.148438 248.277344 C 157.777344 247.996094 156.753906 247.984375 156.59375 247.765625 C 156.347656 247.425781 157.371094 246.949219 156.949219 246.382812 C 155.882812 246.582031 156.589844 246.347656 155.832031 245.679688 C 155.460938 245.355469 155.144531 245.425781 154.867188 245 C 154.523438 244.472656 154.679688 244.238281 154.28125 243.632812 C 154.019531 244 153.75 244.011719 153.472656 243.667969 C 153.492188 243.300781 153.359375 243.003906 153.082031 242.78125 C 152.777344 243.144531 153.246094 243.585938 152.59375 243.769531 C 152.824219 242.214844 151.644531 241.234375 150.683594 240.535156 C 150.269531 240.230469 150.558594 239.253906 149.738281 240.589844 C 149.117188 239.453125 149.445312 239.011719 148.054688 238.785156 C 147.925781 238.015625 148.679688 239.074219 148.097656 237.929688 C 147.933594 237.609375 147.96875 237.207031 147.621094 236.984375 C 146.757812 236.433594 147.082031 237.1875 146.519531 237.078125 C 146.210938 236.882812 146.660156 236.445312 146.371094 236.3125 C 146.285156 236.273438 145.785156 236.523438 145.855469 236.621094 C 145.714844 236.410156 145.492188 235.808594 145.503906 235.824219 C 145.429688 235.710938 145.539062 235.046875 145.003906 234.945312 C 144.59375 235.097656 145.457031 235.644531 144.667969 235.617188 C 145.128906 234.550781 143.945312 233.839844 143.382812 233.746094 C 143.675781 233.078125 142.554688 232.792969 142.339844 232.476562 C 142.15625 232.210938 142.089844 232.53125 141.933594 232.027344 C 141.878906 231.847656 142.257812 231.496094 142.132812 231.109375 C 141.894531 230.394531 138.425781 227.367188 137.722656 228.507812 C 137.910156 227.164062 136.394531 225.132812 136.394531 225.132812 L 133.886719 227.601562 C 133.886719 227.601562 134.476562 227.785156 134.800781 227.746094 C 134.640625 227.839844 134.585938 227.972656 134.628906 228.140625 C 135.675781 228.570312 136.414062 230.042969 137.183594 230.910156 C 138.800781 232.726562 140.527344 233.441406 141.785156 235.542969 C 141.914062 235.507812 141.996094 235.429688 142.03125 235.3125 C 143.308594 236.972656 144.964844 238.09375 146.03125 239.609375 C 147.101562 241.132812 149.167969 241.695312 150.222656 243.039062 C 150.410156 243.277344 150.648438 244.019531 151.152344 244.527344 C 151.832031 245.214844 152.539062 245.835938 153.164062 246.574219 C 154.871094 248.597656 156.761719 250.425781 158.609375 252.320312 C 162.277344 256.085938 165.898438 259.882812 169.738281 263.472656 C 172.582031 266.136719 177.945312 272.335938 177.945312 272.335938 C 177.945312 272.335938 178.535156 272.519531 178.859375 272.484375 C 178.703125 272.574219 178.644531 272.707031 178.6875 272.878906 C 179.734375 273.304688 180.472656 274.777344 181.242188 275.644531 C 182.859375 277.464844 184.585938 278.175781 185.84375 280.277344 C 185.972656 280.242188 186.054688 280.164062 186.089844 280.046875 C 187.367188 281.707031 189.023438 282.828125 190.089844 284.34375 C 191.160156 285.867188 193.226562 286.429688 194.28125 287.773438 C 194.46875 288.011719 194.710938 288.753906 195.210938 289.261719 C 195.890625 289.949219 196.597656 290.570312 197.222656 291.308594 C 198.933594 293.332031 200.820312 295.160156 202.667969 297.058594 C 206.335938 300.820312 209.957031 304.617188 213.796875 308.210938 C 216.640625 310.871094 222.003906 317.070312 222.003906 317.070312 C 222.003906 317.070312 222.59375 317.253906 222.917969 317.21875 C 222.761719 317.308594 222.703125 317.441406 222.746094 317.609375 C 223.796875 318.039062 224.53125 319.511719 225.300781 320.378906 C 226.921875 322.195312 228.644531 322.910156 229.902344 325.011719 C 230.03125 324.976562 230.113281 324.898438 230.152344 324.78125 C 230.789062 325.609375 231.523438 326.304688 232.230469 326.984375 L 232.71875 327.453125 C 232.792969 327.539062 232.984375 327.769531 233.105469 327.929688 C 233.375 328.289062 233.617188 328.667969 233.816406 329.066406 C 234.59375 330.65625 236.460938 331.601562 237.109375 333.167969 C 237.21875 333.449219 237.25 334.199219 237.554688 334.820312 C 237.980469 335.652344 238.429688 336.453125 238.71875 337.339844 C 239.527344 339.769531 240.351562 342.152344 240.78125 344.644531 C 241.667969 349.585938 241.1875 354.632812 239.421875 359.28125 C 238.789062 361.019531 237.285156 363.503906 235.703125 365.332031 C 234.910156 366.246094 234.167969 367.042969 233.570312 367.570312 C 232.996094 368.113281 232.640625 368.449219 232.640625 368.449219 L 235.132812 370.941406 C 235.132812 370.941406 235.574219 369.929688 235.890625 369.613281 C 236.160156 369.339844 236.292969 369.136719 236.585938 368.886719 C 237.226562 368.300781 236.859375 368.730469 237.484375 368.339844 C 236.761719 367.726562 238.367188 366.734375 238.195312 365.964844 C 238.902344 365.695312 238.621094 365.996094 239.226562 365.410156 C 239.847656 364.867188 240.449219 363.511719 240.886719 362.792969 C 241.148438 362.515625 241.347656 362.1875 241.484375 361.824219 C 241.488281 361.445312 241.328125 361.144531 241.019531 360.917969 C 241.097656 360.671875 241.6875 359.691406 241.847656 359.363281 C 242.019531 358.988281 242.332031 358.707031 242.488281 358.335938 C 242.769531 358.257812 242.953125 358.070312 243.039062 357.777344 C 242.894531 357.347656 242.84375 356.921875 242.835938 356.480469 C 242.828125 355.976562 242.945312 355.515625 243.195312 355.078125 C 243.410156 355.105469 243.59375 355.035156 243.742188 354.871094 C 243.945312 354.332031 243.386719 353.664062 243.382812 353.390625 C 243.441406 353.234375 243.871094 353.082031 243.882812 352.910156 C 243.894531 352.5625 243.640625 352.179688 243.636719 351.777344 C 243.625 351.546875 243.535156 350.808594 243.570312 350.628906 C 243.671875 350.277344 244.171875 350.1875 244.242188 349.804688 C 244.300781 349.496094 243.960938 349.4375 243.984375 349.273438 Z M 187.839844 278.296875 C 187.945312 278.023438 188.109375 278.097656 188.28125 278.164062 C 188.207031 278.433594 188.042969 278.367188 187.839844 278.296875 Z M 199.035156 289.226562 C 199.402344 288.902344 199.472656 289.390625 199.402344 289.425781 C 199.21875 289.46875 199.09375 289.402344 199.035156 289.226562 Z M 143.78125 233.5625 C 143.882812 233.289062 144.050781 233.363281 144.222656 233.429688 C 144.148438 233.699219 143.984375 233.632812 143.78125 233.5625 Z M 154.976562 244.492188 C 155.34375 244.167969 155.414062 244.65625 155.34375 244.691406 C 155.160156 244.730469 155.035156 244.664062 154.976562 244.492188 Z M 320.050781 175.300781 C 319.847656 175.507812 319.726562 175.375 319.59375 175.246094 C 319.769531 175.027344 319.890625 175.152344 320.050781 175.300781 Z M 314.199219 160.789062 C 313.730469 160.9375 313.863281 160.460938 313.945312 160.460938 C 314.128906 160.496094 314.214844 160.605469 314.199219 160.789062 Z M 336.53125 219.472656 C 336.066406 219.621094 336.199219 219.144531 336.277344 219.140625 C 336.460938 219.179688 336.546875 219.289062 336.53125 219.472656 Z M 342.382812 233.984375 C 342.179688 234.191406 342.058594 234.058594 341.925781 233.929688 C 342.101562 233.710938 342.226562 233.835938 342.382812 233.984375 Z M 365.488281 274.941406 C 365.195312 275.339844 365.011719 274.855469 365.074219 274.808594 C 365.253906 274.734375 365.386719 274.777344 365.488281 274.941406 Z M 386.089844 278.703125 C 386.269531 278.277344 386.675781 278.800781 386.898438 278.492188 C 386.910156 278.511719 387.890625 278.414062 388 278.3125 C 387.511719 278.859375 386.753906 279.136719 386.089844 278.703125 Z M 373.230469 276.828125 C 373.429688 276.78125 373.578125 276.84375 373.679688 277.023438 L 374.085938 277.085938 C 373.832031 277.21875 372.992188 277.550781 373.230469 276.828125 Z M 344.292969 238.546875 C 344.738281 238.636719 344.296875 239.121094 344.636719 239.277344 C 344.640625 239.289062 344.863281 240.21875 344.960938 240.316406 C 344.390625 239.90625 343.980469 239.261719 344.292969 238.546875 Z M 340.796875 226.058594 C 340.953125 226.1875 340.992188 226.34375 340.910156 226.535156 C 340.976562 226.65625 341.042969 226.777344 341.109375 226.898438 C 340.84375 226.769531 340.082031 226.316406 340.796875 226.058594 Z M 321.960938 179.863281 C 322.40625 179.953125 321.964844 180.441406 322.304688 180.597656 C 322.308594 180.609375 322.53125 181.535156 322.628906 181.632812 C 322.058594 181.222656 321.648438 180.578125 321.960938 179.863281 Z M 318.464844 167.375 C 318.621094 167.503906 318.660156 167.664062 318.578125 167.851562 C 318.644531 167.972656 318.710938 168.09375 318.777344 168.214844 C 318.511719 168.089844 317.75 167.632812 318.464844 167.375 Z M 391.328125 274.480469 C 391.328125 274.480469 390.9375 274.921875 390.835938 275.226562 C 390.816406 275.042969 390.726562 274.933594 390.558594 274.898438 C 390.160156 275.261719 389.558594 275.464844 388.925781 275.566406 C 388.285156 275.648438 387.621094 275.671875 387.085938 275.78125 C 384.84375 276.109375 383.265625 277.109375 380.996094 276.523438 C 380.9375 276.640625 380.933594 276.753906 380.988281 276.859375 C 379.042969 276.582031 377.136719 276.8125 375.515625 276.09375 C 373.941406 275.414062 371.921875 275.886719 370.484375 274.996094 C 370.222656 274.855469 369.773438 274.253906 369.179688 273.925781 C 368.355469 273.515625 367.5625 273.085938 366.828125 272.523438 C 364.84375 270.957031 362.894531 269.367188 361.136719 267.507812 C 359.414062 265.660156 357.859375 263.640625 356.46875 261.519531 C 355.777344 260.460938 355.113281 259.375 354.515625 258.273438 L 354.089844 257.46875 L 353.753906 256.652344 L 352.992188 254.839844 C 351.457031 251.257812 349.042969 243.421875 349.042969 243.421875 C 349.042969 243.421875 348.578125 243.015625 348.265625 242.917969 C 348.445312 242.898438 348.550781 242.800781 348.578125 242.628906 C 347.792969 241.816406 347.710938 240.171875 347.355469 239.066406 C 346.605469 236.75 345.3125 235.402344 345.007812 232.972656 C 344.875 232.953125 344.769531 232.988281 344.6875 233.085938 C 344.1875 231.050781 343.121094 229.359375 342.757812 227.542969 C 342.390625 225.714844 340.726562 224.367188 340.300781 222.714844 C 340.226562 222.421875 340.300781 221.648438 340.046875 220.976562 C 339.703125 220.078125 339.304688 219.222656 339.03125 218.296875 C 338.28125 215.753906 337.285156 213.324219 336.355469 210.839844 C 334.511719 205.921875 332.726562 200.984375 330.65625 196.15625 C 329.125 192.574219 326.710938 184.738281 326.710938 184.738281 C 326.710938 184.738281 326.242188 184.332031 325.929688 184.234375 C 326.113281 184.214844 326.21875 184.117188 326.246094 183.945312 C 325.460938 183.132812 325.378906 181.488281 325.023438 180.382812 C 324.273438 178.066406 322.980469 176.71875 322.675781 174.289062 C 322.542969 174.269531 322.4375 174.308594 322.355469 174.402344 C 321.855469 172.367188 320.789062 170.675781 320.425781 168.859375 C 320.054688 167.03125 318.390625 165.6875 317.96875 164.035156 C 317.890625 163.738281 317.96875 162.964844 317.714844 162.296875 C 317.367188 161.394531 316.972656 160.539062 316.695312 159.613281 C 315.945312 157.070312 314.953125 154.640625 314.023438 152.15625 C 312.179688 147.238281 310.394531 142.304688 308.324219 137.472656 C 306.792969 133.890625 304.378906 126.054688 304.378906 126.054688 L 301.085938 127.308594 C 301.085938 127.308594 301.78125 128.101562 301.921875 128.511719 C 302.039062 128.859375 302.164062 129.0625 302.253906 129.421875 C 302.453125 130.230469 302.257812 129.726562 302.277344 130.4375 C 303.148438 130.117188 303.234375 131.921875 303.910156 132.195312 C 303.726562 132.917969 303.640625 132.53125 303.769531 133.324219 C 303.898438 134.09375 304.492188 135.355469 304.777344 136.109375 C 304.800781 136.476562 304.894531 136.824219 305.058594 137.152344 C 305.324219 137.398438 305.652344 137.484375 306.03125 137.421875 C 306.183594 137.632812 306.390625 138.734375 306.488281 139.070312 C 306.597656 139.457031 306.574219 139.84375 306.664062 140.222656 C 306.488281 140.457031 306.453125 140.707031 306.5625 140.976562 C 306.925781 141.210938 307.238281 141.496094 307.488281 141.839844 C 307.765625 142.234375 307.917969 142.675781 307.945312 143.15625 C 307.75 143.25 307.632812 143.398438 307.59375 143.609375 C 307.6875 144.140625 308.476562 144.421875 308.617188 144.652344 C 308.640625 144.816406 308.332031 145.140625 308.402344 145.285156 C 308.550781 145.585938 308.925781 145.808594 309.097656 146.15625 C 309.195312 146.355469 309.605469 146.957031 309.621094 147.140625 C 309.652344 147.5 309.21875 147.765625 309.285156 148.128906 C 309.339844 148.421875 309.671875 148.351562 309.710938 148.507812 C 309.746094 148.648438 309.878906 149.351562 309.976562 149.570312 C 310.371094 150.429688 310.316406 149.941406 311.023438 150.613281 C 310.953125 150.761719 310.828125 150.847656 310.65625 150.859375 C 311.09375 151.167969 310.769531 151.695312 310.953125 152.074219 C 311.15625 152.496094 311.539062 152.347656 311.820312 152.683594 C 311.703125 153.730469 311.261719 152.46875 311.804688 153.789062 C 312.066406 154.433594 312.484375 155.441406 312.820312 156.046875 C 313.046875 156.453125 313.980469 156.878906 314.035156 157.140625 C 314.125 157.550781 312.996094 157.578125 313.15625 158.265625 C 314.210938 158.511719 313.46875 158.441406 313.894531 159.359375 C 314.101562 159.800781 314.421875 159.867188 314.503906 160.367188 C 314.609375 160.988281 314.367188 161.144531 314.492188 161.855469 C 314.875 161.625 315.128906 161.722656 315.242188 162.148438 C 315.078125 162.480469 315.078125 162.800781 315.246094 163.117188 C 315.671875 162.90625 315.414062 162.316406 316.089844 162.40625 C 315.253906 163.742188 315.9375 165.113281 316.535156 166.140625 C 316.792969 166.585938 316.136719 167.363281 317.425781 166.464844 C 317.535156 167.757812 317.058594 168.03125 318.238281 168.796875 C 318.046875 169.554688 317.785156 168.285156 317.855469 169.566406 C 317.878906 169.925781 317.683594 170.277344 317.910156 170.621094 C 318.480469 171.472656 318.488281 170.652344 318.957031 170.980469 C 319.160156 171.28125 318.574219 171.503906 318.785156 171.738281 C 318.851562 171.8125 319.40625 171.78125 319.382812 171.664062 C 319.425781 171.914062 319.386719 172.554688 319.382812 172.535156 C 319.402344 172.671875 319.035156 173.230469 319.484375 173.542969 C 319.921875 173.566406 319.351562 172.71875 320.066406 173.0625 C 319.210938 173.851562 320.011719 174.980469 320.488281 175.292969 C 319.953125 175.785156 320.863281 176.5 320.933594 176.871094 C 320.992188 177.191406 321.183594 176.925781 321.121094 177.449219 C 321.101562 177.632812 320.613281 177.804688 320.574219 178.207031 C 320.503906 178.957031 322.460938 183.128906 323.5625 182.367188 C 322.851562 183.519531 323.417969 185.992188 323.417969 185.992188 C 323.417969 185.992188 324.113281 186.785156 324.253906 187.191406 C 324.375 187.542969 324.496094 187.746094 324.585938 188.105469 C 324.785156 188.914062 324.589844 188.410156 324.609375 189.121094 C 325.480469 188.800781 325.566406 190.605469 326.242188 190.882812 C 326.058594 191.601562 325.972656 191.214844 326.101562 192.007812 C 326.230469 192.777344 326.824219 194.039062 327.109375 194.792969 C 327.132812 195.160156 327.226562 195.507812 327.390625 195.835938 C 327.660156 196.078125 327.984375 196.167969 328.363281 196.105469 C 328.515625 196.316406 328.722656 197.414062 328.820312 197.753906 C 328.929688 198.136719 328.90625 198.527344 328.996094 198.90625 C 328.820312 199.140625 328.785156 199.390625 328.894531 199.65625 C 329.257812 199.890625 329.570312 200.179688 329.820312 200.523438 C 330.101562 200.917969 330.25 201.355469 330.277344 201.839844 C 330.082031 201.933594 329.964844 202.082031 329.925781 202.289062 C 330.019531 202.824219 330.808594 203.105469 330.949219 203.335938 C 330.972656 203.496094 330.664062 203.824219 330.738281 203.96875 C 330.882812 204.265625 331.257812 204.492188 331.429688 204.839844 C 331.527344 205.039062 331.9375 205.640625 331.953125 205.824219 C 331.984375 206.183594 331.550781 206.449219 331.617188 206.808594 C 331.671875 207.105469 332.007812 207.035156 332.046875 207.191406 C 332.078125 207.332031 332.210938 208.035156 332.308594 208.253906 C 332.703125 209.113281 332.652344 208.625 333.355469 209.296875 C 333.285156 209.445312 333.160156 209.527344 332.988281 209.542969 C 333.425781 209.851562 333.105469 210.378906 333.285156 210.757812 C 333.488281 211.179688 333.871094 211.03125 334.152344 211.363281 C 334.035156 212.414062 333.59375 211.152344 334.136719 212.472656 C 334.398438 213.117188 334.816406 214.121094 335.152344 214.730469 C 335.378906 215.136719 336.3125 215.558594 336.367188 215.820312 C 336.457031 216.234375 335.328125 216.257812 335.488281 216.949219 C 336.546875 217.191406 335.800781 217.125 336.226562 218.039062 C 336.433594 218.484375 336.75 218.546875 336.835938 219.050781 C 336.941406 219.671875 336.703125 219.824219 336.824219 220.539062 C 337.207031 220.308594 337.460938 220.40625 337.578125 220.828125 C 337.410156 221.160156 337.410156 221.484375 337.578125 221.796875 C 338.003906 221.589844 337.746094 221 338.421875 221.089844 C 337.585938 222.425781 338.269531 223.796875 338.867188 224.824219 C 339.125 225.265625 338.46875 226.046875 339.757812 225.148438 C 339.867188 226.441406 339.390625 226.714844 340.574219 227.480469 C 340.382812 228.238281 340.117188 226.964844 340.191406 228.25 C 340.210938 228.609375 340.015625 228.960938 340.242188 229.304688 C 340.816406 230.15625 340.820312 229.335938 341.289062 229.660156 C 341.496094 229.964844 340.90625 230.183594 341.117188 230.421875 C 341.183594 230.496094 341.738281 230.464844 341.714844 230.347656 C 341.761719 230.597656 341.71875 231.238281 341.714844 231.21875 C 341.738281 231.351562 341.367188 231.914062 341.816406 232.226562 C 342.257812 232.25 341.6875 231.402344 342.398438 231.742188 C 341.542969 232.535156 342.34375 233.660156 342.820312 233.976562 C 342.285156 234.46875 343.195312 235.183594 343.265625 235.554688 C 343.328125 235.871094 343.515625 235.605469 343.457031 236.132812 C 343.433594 236.316406 342.945312 236.488281 342.90625 236.890625 C 342.835938 237.640625 344.792969 241.808594 345.894531 241.050781 C 345.183594 242.203125 345.75 244.675781 345.75 244.675781 C 345.75 244.675781 346.445312 245.46875 346.585938 245.878906 C 346.707031 246.226562 346.828125 246.429688 346.917969 246.789062 C 347.117188 247.597656 346.921875 247.089844 346.941406 247.800781 C 347.816406 247.484375 347.898438 249.289062 348.574219 249.5625 C 348.390625 250.285156 348.304688 249.894531 348.433594 250.691406 C 348.5625 251.460938 349.15625 252.71875 349.445312 253.472656 C 349.464844 253.84375 349.558594 254.191406 349.722656 254.519531 C 349.992188 254.761719 350.316406 254.851562 350.695312 254.789062 C 350.847656 255 351.054688 256.097656 351.152344 256.433594 C 351.261719 256.820312 351.242188 257.210938 351.328125 257.589844 C 351.152344 257.824219 351.117188 258.074219 351.226562 258.339844 C 351.621094 258.683594 351.992188 258.953125 352.277344 259.269531 C 352.605469 259.640625 352.816406 260.0625 352.925781 260.546875 C 352.746094 260.667969 352.65625 260.835938 352.652344 261.054688 C 352.839844 261.585938 353.679688 261.730469 353.859375 261.9375 C 353.914062 262.089844 353.683594 262.476562 353.785156 262.609375 C 353.988281 262.882812 354.410156 263.023438 354.664062 263.332031 C 354.800781 263.511719 355.351562 264.007812 355.414062 264.183594 C 355.539062 264.527344 355.1875 264.902344 355.355469 265.238281 C 355.492188 265.515625 355.800781 265.359375 355.882812 265.503906 C 355.953125 265.628906 356.289062 266.289062 356.460938 266.46875 C 357.121094 267.183594 356.902344 266.738281 357.800781 267.152344 C 357.785156 267.320312 357.699219 267.4375 357.539062 267.507812 C 358.066406 267.65625 357.9375 268.28125 358.261719 268.574219 C 358.617188 268.902344 358.921875 268.621094 359.308594 268.835938 C 359.617188 269.867188 358.691406 268.855469 359.742188 269.878906 C 360.246094 270.386719 361.101562 271.121094 361.683594 271.527344 C 362.09375 271.789062 363.121094 271.714844 363.296875 271.914062 C 363.582031 272.238281 362.609375 272.816406 363.128906 273.34375 C 364.179688 273.007812 363.488281 273.339844 364.375 273.90625 C 364.8125 274.164062 365.117188 274.039062 365.484375 274.414062 C 365.9375 274.882812 365.851562 275.128906 366.410156 275.636719 C 366.574219 275.21875 366.835938 275.144531 367.199219 275.414062 C 367.28125 275.789062 367.511719 276.027344 367.855469 276.167969 C 368.035156 275.726562 367.441406 275.445312 368.027344 275.078125 C 368.257812 276.648438 369.8125 277.238281 371.015625 277.492188 C 371.539062 277.597656 371.71875 278.613281 371.867188 277.046875 C 372.925781 277.832031 372.910156 278.328125 374.242188 277.867188 C 374.765625 278.472656 373.53125 277.9375 374.671875 278.621094 C 374.992188 278.800781 375.199219 279.160156 375.636719 279.15625 C 376.707031 279.144531 375.972656 278.695312 376.507812 278.464844 C 376.878906 278.429688 376.78125 279.050781 377.105469 278.980469 C 377.203125 278.957031 377.445312 278.457031 377.328125 278.417969 C 377.574219 278.5 378.136719 278.84375 378.117188 278.835938 C 378.246094 278.890625 378.609375 279.460938 379.101562 279.171875 C 379.3125 278.785156 378.28125 278.960938 378.902344 278.449219 C 379.265625 279.546875 380.703125 279.300781 381.164062 278.921875 C 381.453125 279.585938 382.472656 278.980469 382.851562 279.011719 C 383.183594 279.035156 382.972656 278.785156 383.472656 278.976562 C 383.652344 279.046875 383.683594 279.5625 384.085938 279.703125 C 384.269531 279.761719 384.714844 279.777344 385.257812 279.6875 C 385.800781 279.585938 386.445312 279.417969 387.039062 279.203125 C 388.234375 278.75 389.179688 278.035156 388.851562 277.464844 C 389.398438 277.898438 390.324219 277.984375 391.109375 277.941406 C 391.902344 277.914062 392.558594 277.785156 392.558594 277.785156 Z M 381.015625 279.335938 C 381.144531 279.597656 380.96875 279.667969 380.789062 279.746094 C 380.640625 279.507812 380.8125 279.433594 381.015625 279.335938 Z M 379.777344 192.089844 C 379.980469 191.871094 380.105469 192.023438 380.242188 192.167969 C 380.066406 192.402344 379.941406 192.257812 379.777344 192.089844 Z M 386.101562 208.210938 C 386.570312 208.066406 386.449219 208.585938 386.367188 208.585938 C 386.179688 208.535156 386.089844 208.410156 386.101562 208.210938 Z M 361.875 143.074219 C 362.347656 142.929688 362.222656 143.445312 362.144531 143.445312 C 361.953125 143.398438 361.867188 143.273438 361.875 143.074219 Z M 353.492188 121.878906 C 353.039062 121.761719 353.472656 121.25 353.125 121.0625 C 353.121094 121.050781 352.871094 120.023438 352.769531 119.914062 C 353.355469 120.390625 353.792969 121.109375 353.492188 121.878906 Z M 357.378906 135.6875 C 357.214844 135.539062 357.167969 135.363281 357.246094 135.160156 C 357.179688 135.027344 357.105469 134.890625 357.035156 134.753906 C 357.308594 134.90625 358.09375 135.4375 357.378906 135.6875 Z M 377.71875 187.015625 C 377.261719 186.898438 377.695312 186.386719 377.347656 186.199219 C 377.347656 186.199219 377.09375 185.160156 376.992188 185.050781 C 377.578125 185.527344 378.015625 186.246094 377.71875 187.015625 Z M 381.601562 200.824219 C 381.4375 200.675781 381.390625 200.503906 381.46875 200.296875 L 381.261719 199.890625 C 381.53125 200.042969 382.316406 200.574219 381.601562 200.824219 Z M 349.039062 117.230469 C 349.859375 118.152344 349.988281 119.957031 350.378906 121.179688 C 351.199219 123.742188 352.546875 125.273438 352.921875 127.941406 C 353.058594 127.972656 353.164062 127.933594 353.242188 127.835938 C 353.804688 130.078125 354.929688 131.976562 355.351562 133.980469 C 355.773438 135.992188 357.496094 137.539062 357.96875 139.363281 C 358.054688 139.691406 357.996094 140.53125 358.277344 141.273438 C 358.648438 142.277344 359.074219 143.226562 359.378906 144.253906 C 360.207031 147.0625 361.28125 149.765625 362.289062 152.519531 C 364.289062 157.980469 366.234375 163.453125 368.460938 168.824219 C 370.113281 172.808594 372.769531 181.480469 372.769531 181.480469 C 372.769531 181.480469 373.257812 181.945312 373.574219 182.0625 C 373.390625 182.078125 373.285156 182.179688 373.261719 182.367188 C 374.082031 183.289062 374.210938 185.09375 374.601562 186.316406 C 375.421875 188.882812 376.769531 190.410156 377.144531 193.078125 C 377.28125 193.109375 377.386719 193.070312 377.464844 192.972656 C 378.027344 195.21875 379.15625 197.113281 379.574219 199.117188 C 379.996094 201.132812 381.71875 202.675781 382.191406 204.5 C 382.277344 204.828125 382.222656 205.671875 382.496094 206.410156 C 382.871094 207.414062 383.300781 208.363281 383.601562 209.386719 C 384.015625 210.796875 384.492188 212.171875 384.988281 213.542969 C 385.464844 214.90625 386.066406 216.300781 386.417969 217.621094 L 387.019531 219.609375 C 387.222656 220.273438 387.257812 220.953125 387.390625 221.625 C 387.699219 222.96875 387.632812 224.304688 387.675781 225.640625 C 387.496094 228.28125 386.734375 230.816406 385.265625 233.007812 C 384.992188 233.414062 384.695312 233.890625 384.246094 234.304688 C 383.824219 234.734375 383.402344 235.226562 382.847656 235.617188 C 382.328125 236.039062 381.777344 236.457031 381.171875 236.796875 C 380.601562 237.175781 379.980469 237.472656 379.394531 237.757812 C 377.027344 238.890625 374.902344 239.203125 375.011719 239.1875 L 375.746094 242.632812 C 375.8125 242.632812 376.859375 241.964844 377.332031 241.804688 C 377.753906 241.691406 377.988281 241.535156 378.410156 241.425781 C 379.359375 241.167969 378.761719 241.40625 379.585938 241.300781 C 379.402344 240.871094 379.828125 240.585938 380.324219 240.300781 C 380.808594 239.988281 381.378906 239.683594 381.496094 239.316406 C 382.324219 239.324219 381.898438 239.507812 382.769531 239.132812 C 383.628906 238.800781 384.863281 237.648438 385.554688 236.984375 C 385.925781 236.757812 386.257812 236.46875 386.535156 236.125 C 386.683594 235.730469 386.644531 235.386719 386.394531 235.066406 C 386.515625 234.792969 387.425781 233.878906 387.695312 233.554688 C 387.976562 233.183594 388.28125 232.871094 388.546875 232.488281 C 388.851562 232.4375 389.085938 232.25 389.242188 231.933594 C 389.226562 231.457031 389.175781 230.953125 389.214844 230.453125 C 389.273438 229.890625 389.449219 229.382812 389.757812 228.898438 C 389.976562 228.929688 390.167969 228.855469 390.300781 228.664062 C 390.496094 228.039062 389.960938 227.296875 389.953125 226.988281 C 390.019531 226.8125 390.453125 226.621094 390.464844 226.429688 C 390.515625 226.03125 390.210938 225.617188 390.167969 225.167969 C 390.144531 224.910156 389.960938 224.09375 390.007812 223.886719 C 390.097656 223.484375 390.597656 223.339844 390.652344 222.902344 C 390.675781 222.550781 390.3125 222.523438 390.304688 222.339844 C 390.296875 222.175781 390.285156 221.347656 390.226562 221.070312 C 389.980469 220 389.949219 220.558594 389.371094 219.65625 C 389.464844 219.496094 389.597656 219.425781 389.769531 219.445312 C 389.359375 219.019531 389.6875 218.492188 389.515625 218.035156 C 389.320312 217.53125 388.925781 217.648438 388.652344 217.246094 C 388.796875 216.074219 389.210938 217.546875 388.695312 215.992188 C 388.457031 215.226562 387.972656 214.144531 387.625 213.457031 C 387.386719 213.003906 386.429688 212.5 386.363281 212.210938 C 386.261719 211.753906 387.40625 211.777344 387.226562 211.015625 C 386.148438 210.703125 386.90625 210.808594 386.445312 209.789062 C 386.226562 209.292969 385.902344 209.210938 385.804688 208.660156 C 385.679688 207.972656 385.917969 207.816406 385.773438 207.03125 C 385.390625 207.265625 385.132812 207.148438 385.003906 206.679688 C 385.160156 206.324219 385.152344 205.972656 384.976562 205.621094 C 384.550781 205.832031 384.824219 206.488281 384.140625 206.359375 C 384.953125 204.9375 384.222656 203.40625 383.585938 202.257812 C 383.3125 201.761719 383.957031 200.9375 382.679688 201.863281 C 382.53125 200.445312 383.003906 200.167969 381.789062 199.277344 C 381.960938 198.460938 382.265625 199.859375 382.15625 198.453125 C 382.125 198.0625 382.3125 197.683594 382.070312 197.296875 C 381.46875 196.339844 381.484375 197.238281 381 196.863281 C 380.785156 196.523438 381.375 196.304688 381.15625 196.035156 C 381.089844 195.957031 380.527344 195.964844 380.550781 196.09375 C 380.5 195.820312 380.523438 195.117188 380.527344 195.140625 C 380.503906 194.992188 380.859375 194.394531 380.398438 194.035156 C 379.953125 193.988281 380.554688 194.941406 379.824219 194.539062 C 380.664062 193.710938 379.824219 192.441406 379.332031 192.078125 C 379.863281 191.5625 378.921875 190.742188 378.839844 190.332031 C 378.769531 189.980469 378.585938 190.265625 378.632812 189.695312 C 378.648438 189.492188 379.140625 189.324219 379.167969 188.886719 C 379.21875 188.070312 377.121094 183.425781 376.023438 184.210938 C 376.71875 182.980469 376.074219 180.253906 376.074219 180.253906 C 376.074219 180.253906 375.347656 179.355469 375.195312 178.902344 C 375.0625 178.515625 374.933594 178.289062 374.832031 177.890625 C 374.605469 176.996094 374.820312 177.558594 374.78125 176.78125 C 373.90625 177.09375 373.773438 175.113281 373.078125 174.785156 C 373.246094 174.003906 373.34375 174.433594 373.191406 173.554688 C 373.042969 172.710938 372.40625 171.308594 372.09375 170.46875 C 372.058594 170.066406 371.953125 169.683594 371.78125 169.316406 C 371.503906 169.039062 371.171875 168.925781 370.789062 168.980469 C 370.628906 168.742188 370.390625 167.53125 370.28125 167.15625 C 370.160156 166.730469 370.171875 166.304688 370.070312 165.890625 C 370.242188 165.640625 370.273438 165.367188 370.15625 165.070312 C 369.777344 164.800781 369.453125 164.472656 369.191406 164.085938 C 368.898438 163.640625 368.734375 163.15625 368.691406 162.625 C 368.886719 162.53125 369.003906 162.375 369.035156 162.148438 C 368.929688 161.5625 368.121094 161.21875 367.972656 160.960938 C 367.945312 160.78125 368.246094 160.4375 368.171875 160.277344 C 368.015625 159.945312 367.628906 159.683594 367.441406 159.296875 C 367.339844 159.074219 366.910156 158.398438 366.886719 158.195312 C 366.847656 157.800781 367.277344 157.53125 367.203125 157.132812 C 367.140625 156.808594 366.800781 156.867188 366.757812 156.695312 C 366.71875 156.542969 366.566406 155.765625 366.460938 155.523438 C 366.035156 154.566406 366.105469 155.105469 365.371094 154.339844 C 365.441406 154.179688 365.5625 154.09375 365.738281 154.085938 C 365.285156 153.730469 365.597656 153.164062 365.402344 152.742188 C 365.183594 152.273438 364.796875 152.421875 364.507812 152.042969 C 364.597656 150.898438 365.078125 152.296875 364.492188 150.828125 C 364.210938 150.117188 363.757812 148.996094 363.402344 148.320312 C 363.160156 147.863281 362.203125 147.359375 362.140625 147.070312 C 362.039062 146.617188 363.183594 146.640625 363.003906 145.878906 C 361.925781 145.566406 362.683594 145.671875 362.222656 144.652344 C 362 144.15625 361.679688 144.074219 361.578125 143.523438 C 361.457031 142.835938 361.695312 142.679688 361.550781 141.894531 C 361.167969 142.132812 360.910156 142.011719 360.78125 141.542969 C 360.9375 141.1875 360.929688 140.835938 360.753906 140.484375 C 360.328125 140.695312 360.601562 141.351562 359.917969 141.222656 C 360.726562 139.800781 359.996094 138.269531 359.363281 137.121094 C 359.089844 136.625 359.734375 135.800781 358.453125 136.726562 C 358.304688 135.308594 358.78125 135.03125 357.566406 134.140625 C 357.738281 133.324219 358.039062 134.722656 357.929688 133.316406 C 357.902344 132.925781 358.089844 132.546875 357.847656 132.160156 C 357.246094 131.203125 357.261719 132.101562 356.777344 131.726562 C 356.5625 131.386719 357.152344 131.167969 356.933594 130.902344 C 356.863281 130.820312 356.304688 130.828125 356.328125 130.960938 C 356.277344 130.683594 356.300781 129.984375 356.304688 130.003906 C 356.28125 129.859375 356.636719 129.257812 356.175781 128.898438 C 355.730469 128.851562 356.328125 129.804688 355.601562 129.402344 C 356.441406 128.570312 355.601562 127.304688 355.109375 126.941406 C 355.640625 126.425781 354.699219 125.605469 354.617188 125.195312 C 354.546875 124.84375 354.363281 125.128906 354.410156 124.558594 C 354.425781 124.355469 354.914062 124.1875 354.945312 123.75 C 354.996094 122.933594 352.898438 118.289062 351.800781 119.070312 C 352.492188 117.84375 351.847656 115.117188 351.847656 115.117188 L 348.546875 116.34375 C 348.546875 116.34375 349.03125 116.808594 349.351562 116.925781 C 349.167969 116.941406 349.0625 117.042969 349.039062 117.230469 Z M 355.554688 126.953125 C 355.753906 126.734375 355.882812 126.886719 356.019531 127.03125 C 355.84375 127.265625 355.71875 127.121094 355.554688 126.953125 Z M 70.6875 189.710938 C 70.40625 189.722656 70.417969 189.546875 70.425781 189.332031 C 70.71875 189.347656 70.699219 189.523438 70.6875 189.710938 Z M 60.847656 202.144531 C 61.152344 202.53125 60.640625 202.578125 60.613281 202.503906 C 60.589844 202.3125 60.667969 202.195312 60.847656 202.144531 Z M 99.804688 134.078125 C 99.523438 134.09375 99.535156 133.917969 99.542969 133.699219 C 99.835938 133.714844 99.816406 133.894531 99.804688 134.078125 Z M 92.484375 148.113281 C 92.386719 147.949219 92.414062 147.8125 92.558594 147.703125 C 92.984375 147.953125 92.539062 148.171875 92.484375 148.113281 Z M 131.691406 71.941406 C 131.761719 72.640625 131.554688 73.378906 130.808594 73.617188 C 130.582031 73.222656 131.238281 73.230469 131.128906 72.871094 C 131.132812 72.863281 131.683594 72.078125 131.691406 71.941406 Z M 123.78125 84.515625 C 123.769531 84.3125 123.863281 84.175781 124.058594 84.113281 C 124.109375 83.984375 124.15625 83.851562 124.203125 83.722656 C 124.28125 84.003906 124.445312 84.878906 123.78125 84.515625 Z M 102.574219 127.570312 C 102.644531 128.269531 102.433594 129.007812 101.691406 129.246094 C 101.464844 128.851562 102.121094 128.859375 102.011719 128.503906 C 102.019531 128.492188 102.566406 127.710938 102.574219 127.570312 Z M 94.664062 140.144531 C 94.652344 139.941406 94.746094 139.804688 94.945312 139.742188 C 94.992188 139.613281 95.039062 139.484375 95.085938 139.351562 C 95.164062 139.632812 95.328125 140.507812 94.664062 140.144531 Z M 73.457031 183.199219 C 73.527344 183.898438 73.320312 184.636719 72.578125 184.875 C 72.347656 184.480469 73.003906 184.488281 72.894531 184.132812 C 72.894531 184.132812 73.449219 183.339844 73.457031 183.199219 Z M 65.054688 195.414062 C 65.085938 195.210938 65.203125 195.101562 65.40625 195.074219 L 65.613281 194.714844 C 65.648438 195.007812 65.640625 195.902344 65.054688 195.414062 Z M 134.429688 68.460938 L 131.308594 66.828125 C 131.308594 66.828125 131.3125 67.445312 131.449219 67.742188 C 131.3125 67.621094 131.167969 67.609375 131.019531 67.699219 C 130.933594 68.828125 129.757812 69.980469 129.167969 70.980469 C 127.929688 73.074219 127.777344 74.9375 126.164062 76.777344 C 126.238281 76.890625 126.335938 76.945312 126.460938 76.941406 C 125.269531 78.664062 124.710938 80.585938 123.589844 82.0625 C 122.46875 83.550781 122.5625 85.6875 121.605469 87.101562 C 121.4375 87.355469 120.804688 87.8125 120.476562 88.445312 C 120.03125 89.300781 119.652344 90.164062 119.140625 90.984375 C 117.738281 93.230469 116.574219 95.585938 115.332031 97.929688 C 112.875 102.570312 110.363281 107.179688 108.117188 111.933594 C 106.457031 115.453125 102.191406 122.457031 102.191406 122.457031 C 102.191406 122.457031 102.195312 123.078125 102.332031 123.375 C 102.195312 123.253906 102.054688 123.238281 101.902344 123.328125 C 101.816406 124.457031 100.640625 125.609375 100.050781 126.609375 C 98.816406 128.707031 98.660156 130.566406 97.046875 132.40625 C 97.121094 132.519531 97.21875 132.574219 97.34375 132.570312 C 96.152344 134.292969 95.59375 136.214844 94.472656 137.691406 C 93.351562 139.179688 93.445312 141.316406 92.492188 142.730469 C 92.320312 142.984375 91.6875 143.441406 91.359375 144.074219 C 90.914062 144.929688 90.539062 145.792969 90.027344 146.613281 C 88.621094 148.859375 87.457031 151.214844 86.21875 153.558594 C 83.757812 158.199219 81.246094 162.8125 79.003906 167.5625 C 77.339844 171.085938 73.074219 178.085938 73.074219 178.085938 C 73.074219 178.085938 73.078125 178.707031 73.214844 179.003906 C 73.078125 178.882812 72.933594 178.867188 72.785156 178.960938 C 72.699219 180.089844 71.523438 181.238281 70.933594 182.238281 C 69.699219 184.335938 69.546875 186.195312 67.929688 188.035156 C 68.003906 188.148438 68.101562 188.203125 68.226562 188.199219 C 67.632812 189.0625 67.191406 189.972656 66.765625 190.851562 L 66.464844 191.464844 C 66.410156 191.5625 66.246094 191.8125 66.132812 191.976562 C 65.871094 192.34375 65.585938 192.691406 65.269531 193 C 63.992188 194.226562 63.660156 196.296875 62.371094 197.390625 C 62.136719 197.578125 61.429688 197.839844 60.929688 198.320312 C 60.269531 198.980469 59.644531 199.652344 58.886719 200.199219 C 56.824219 201.714844 54.804688 203.222656 52.5625 204.398438 C 48.132812 206.753906 43.179688 207.839844 38.214844 207.578125 C 36.363281 207.511719 33.542969 206.835938 31.316406 205.890625 C 30.203125 205.410156 29.21875 204.949219 28.53125 204.542969 C 27.839844 204.164062 27.410156 203.925781 27.410156 203.925781 L 25.800781 207.0625 C 25.800781 207.0625 26.902344 207.171875 27.296875 207.375 C 27.636719 207.550781 27.871094 207.613281 28.203125 207.816406 C 28.957031 208.246094 28.433594 208.027344 28.996094 208.507812 C 29.359375 207.632812 30.796875 208.851562 31.476562 208.457031 C 31.949219 209.046875 31.574219 208.875 32.316406 209.269531 C 33.027344 209.691406 34.5 209.851562 35.316406 210.046875 C 35.664062 210.214844 36.035156 210.300781 36.421875 210.320312 C 36.78125 210.207031 37.023438 209.96875 37.144531 209.601562 C 37.402344 209.601562 38.515625 209.859375 38.878906 209.914062 C 39.289062 209.964844 39.652344 210.175781 40.050781 210.207031 C 40.214844 210.453125 40.449219 210.570312 40.753906 210.5625 C 41.117188 210.292969 41.507812 210.117188 41.925781 209.972656 C 42.402344 209.8125 42.875 209.785156 43.371094 209.886719 C 43.410156 210.101562 43.53125 210.253906 43.734375 210.34375 C 44.308594 210.371094 44.773438 209.636719 45.035156 209.546875 C 45.199219 209.554688 45.476562 209.921875 45.644531 209.878906 C 45.976562 209.78125 46.265625 209.421875 46.648438 209.296875 C 46.863281 209.21875 47.535156 208.90625 47.71875 208.882812 C 48.085938 208.871094 48.324219 209.320312 48.710938 209.273438 C 49.023438 209.230469 48.972656 208.890625 49.136719 208.859375 C 49.289062 208.847656 50.019531 208.699219 50.25 208.59375 C 51.140625 208.175781 50.652344 208.261719 51.3125 207.511719 C 51.46875 207.574219 51.558594 207.6875 51.582031 207.863281 C 51.875 207.402344 52.4375 207.683594 52.824219 207.464844 C 53.238281 207.210938 53.046875 206.839844 53.355469 206.519531 C 54.4375 206.492188 53.207031 207.109375 54.488281 206.378906 C 55.097656 206.003906 56.054688 205.398438 56.578125 204.910156 C 56.949219 204.601562 57.132812 203.578125 57.363281 203.453125 C 57.746094 203.257812 58.058594 204.34375 58.707031 203.992188 C 58.65625 202.894531 58.789062 203.636719 59.5625 202.929688 C 59.941406 202.59375 59.890625 202.261719 60.34375 202.007812 C 60.90625 201.6875 61.136719 201.859375 61.769531 201.464844 C 61.410156 201.191406 61.410156 200.917969 61.769531 200.644531 C 62.148438 200.671875 62.445312 200.53125 62.675781 200.246094 C 62.308594 199.945312 61.867188 200.421875 61.6875 199.761719 C 63.25 200.003906 64.257812 198.738281 64.902344 197.714844 C 65.175781 197.265625 66.183594 197.457031 64.773438 196.765625 C 65.851562 196.035156 66.339844 196.285156 66.394531 194.867188 C 67.140625 194.617188 66.191406 195.546875 67.253906 194.773438 C 67.550781 194.554688 67.957031 194.511719 68.125 194.121094 C 68.523438 193.128906 67.828125 193.621094 67.835938 193.035156 C 67.972656 192.675781 68.472656 193.0625 68.582031 192.671875 C 68.628906 192.511719 68.214844 192.160156 68.144531 192.242188 C 68.304688 192.042969 68.8125 191.648438 68.800781 191.664062 C 68.886719 191.558594 69.550781 191.460938 69.484375 190.921875 C 69.214844 190.574219 68.957031 191.5625 68.742188 190.804688 C 69.898438 190.917969 70.210938 189.574219 70.132812 189.007812 C 70.855469 189.085938 70.785156 187.929688 71.019531 187.628906 C 71.214844 187.371094 70.890625 187.40625 71.324219 187.105469 C 71.476562 186.996094 71.929688 187.25 72.257812 187.011719 C 72.863281 186.566406 74.6875 182.335938 73.386719 182.015625 C 74.722656 181.785156 76.195312 179.71875 76.195312 179.71875 C 76.195312 179.71875 76.328125 178.671875 76.539062 178.296875 C 76.722656 177.976562 76.792969 177.75 77.003906 177.445312 C 77.476562 176.757812 77.230469 177.242188 77.746094 176.753906 C 76.929688 176.3125 78.226562 175.054688 77.980469 174.363281 C 78.644531 174.023438 78.410156 174.347656 78.917969 173.722656 C 79.410156 173.117188 79.960938 171.835938 80.335938 171.121094 C 80.59375 170.859375 80.792969 170.558594 80.929688 170.21875 C 80.933594 169.859375 80.785156 169.554688 80.488281 169.3125 C 80.542969 169.058594 81.230469 168.175781 81.417969 167.878906 C 81.632812 167.539062 81.941406 167.296875 82.164062 166.980469 C 82.457031 166.957031 82.664062 166.816406 82.796875 166.5625 C 82.726562 166.132812 82.738281 165.707031 82.828125 165.292969 C 82.9375 164.820312 83.164062 164.417969 83.511719 164.074219 C 83.710938 164.160156 83.898438 164.148438 84.082031 164.039062 C 84.417969 163.617188 84.105469 162.839844 84.183594 162.582031 C 84.289062 162.457031 84.738281 162.472656 84.800781 162.320312 C 84.925781 162.015625 84.84375 161.585938 84.992188 161.226562 C 85.074219 161.019531 85.253906 160.316406 85.382812 160.183594 C 85.628906 159.921875 86.117188 160.066406 86.34375 159.777344 C 86.527344 159.542969 86.253906 159.339844 86.34375 159.203125 C 86.425781 159.085938 86.867188 158.523438 86.964844 158.300781 C 87.34375 157.4375 87.015625 157.800781 87.050781 156.832031 C 87.210938 156.78125 87.351562 156.820312 87.476562 156.941406 C 87.417969 156.410156 88.027344 156.300781 88.191406 155.910156 C 88.371094 155.480469 88.003906 155.289062 88.070312 154.859375 C 88.933594 154.25 88.28125 155.417969 88.910156 154.136719 C 89.21875 153.515625 89.695312 152.535156 89.925781 151.882812 C 90.082031 151.441406 89.777344 150.464844 89.9375 150.246094 C 90.1875 149.90625 90.953125 150.734375 91.363281 150.15625 C 90.847656 149.203125 91.289062 149.808594 91.691406 148.882812 C 91.886719 148.429688 91.722656 148.152344 92.042969 147.757812 C 92.441406 147.265625 92.714844 147.34375 93.164062 146.777344 C 92.738281 146.640625 92.644531 146.390625 92.886719 146.019531 C 93.242188 145.925781 93.484375 145.710938 93.609375 145.378906 C 93.167969 145.195312 92.898438 145.78125 92.519531 145.214844 C 94.074219 144.957031 94.644531 143.535156 95.019531 142.40625 C 95.179688 141.917969 96.199219 141.894531 94.671875 141.527344 C 95.566406 140.585938 96.085938 140.761719 95.878906 139.367188 C 96.570312 139.011719 95.792969 140.050781 96.703125 139.144531 C 96.960938 138.890625 97.355469 138.804688 97.460938 138.40625 C 97.71875 137.410156 97.097656 137.953125 97.03125 137.382812 C 97.125 137.03125 97.679688 137.324219 97.71875 137.007812 C 97.726562 136.914062 97.335938 136.519531 97.261719 136.613281 C 97.421875 136.414062 97.929688 136.019531 97.914062 136.035156 C 98.003906 135.929688 98.667969 135.832031 98.601562 135.289062 C 98.332031 134.945312 98.074219 135.933594 97.859375 135.175781 C 99.015625 135.289062 99.328125 133.941406 99.246094 133.378906 C 99.972656 133.453125 99.902344 132.296875 100.136719 131.996094 C 100.332031 131.742188 100.007812 131.777344 100.4375 131.472656 C 100.59375 131.367188 101.046875 131.617188 101.371094 131.382812 C 101.980469 130.9375 103.804688 126.707031 102.503906 126.386719 C 103.839844 126.15625 105.3125 124.089844 105.3125 124.089844 C 105.3125 124.089844 105.445312 123.042969 105.65625 122.667969 C 105.839844 122.347656 105.910156 122.121094 106.121094 121.816406 C 106.59375 121.128906 106.34375 121.613281 106.863281 121.125 C 106.046875 120.683594 107.34375 119.425781 107.097656 118.734375 C 107.761719 118.394531 107.527344 118.71875 108.035156 118.089844 C 108.527344 117.488281 109.078125 116.207031 109.449219 115.492188 C 109.710938 115.230469 109.910156 114.929688 110.046875 114.589844 C 110.050781 114.226562 109.902344 113.925781 109.601562 113.683594 C 109.660156 113.429688 110.347656 112.546875 110.535156 112.25 C 110.75 111.910156 111.058594 111.667969 111.28125 111.351562 C 111.574219 111.328125 111.78125 111.1875 111.910156 110.929688 C 111.84375 110.503906 111.855469 110.078125 111.941406 109.660156 C 112.054688 109.191406 112.28125 108.785156 112.628906 108.445312 C 112.824219 108.53125 113.015625 108.519531 113.195312 108.410156 C 113.535156 107.988281 113.222656 107.210938 113.300781 106.953125 C 113.40625 106.828125 113.855469 106.84375 113.917969 106.691406 C 114.042969 106.386719 113.960938 105.957031 114.109375 105.59375 C 114.191406 105.390625 114.371094 104.6875 114.496094 104.554688 C 114.746094 104.289062 115.234375 104.4375 115.460938 104.148438 C 115.644531 103.914062 115.371094 103.710938 115.460938 103.574219 C 115.539062 103.457031 115.984375 102.894531 116.082031 102.671875 C 116.460938 101.808594 116.132812 102.171875 116.167969 101.203125 C 116.328125 101.152344 116.46875 101.191406 116.59375 101.3125 C 116.535156 100.78125 117.144531 100.671875 117.308594 100.28125 C 117.488281 99.851562 117.121094 99.660156 117.1875 99.230469 C 118.050781 98.621094 117.398438 99.789062 118.027344 98.507812 C 118.335938 97.886719 118.8125 96.90625 119.039062 96.25 C 119.195312 95.8125 118.894531 94.832031 119.054688 94.617188 C 119.304688 94.277344 120.070312 95.105469 120.480469 94.527344 C 119.964844 93.574219 120.40625 94.179688 120.808594 93.25 C 121.003906 92.800781 120.839844 92.523438 121.160156 92.125 C 121.558594 91.636719 121.828125 91.714844 122.28125 91.148438 C 121.855469 91.011719 121.761719 90.761719 122 90.390625 C 122.359375 90.296875 122.601562 90.078125 122.726562 89.746094 C 122.285156 89.566406 122.015625 90.152344 121.636719 89.585938 C 123.1875 89.328125 123.761719 87.90625 124.132812 86.777344 C 124.296875 86.289062 125.316406 86.265625 123.789062 85.894531 C 124.683594 84.957031 125.199219 85.132812 124.992188 83.738281 C 125.6875 83.382812 124.910156 84.421875 125.820312 83.515625 C 126.078125 83.261719 126.472656 83.175781 126.574219 82.777344 C 126.835938 81.78125 126.21875 82.324219 126.148438 81.753906 C 126.242188 81.402344 126.796875 81.695312 126.835938 81.378906 C 126.84375 81.285156 126.453125 80.890625 126.378906 80.984375 C 126.539062 80.785156 127.046875 80.390625 127.03125 80.40625 C 127.117188 80.300781 127.78125 80.203125 127.71875 79.660156 C 127.445312 79.316406 127.191406 80.304688 126.972656 79.546875 C 128.132812 79.660156 128.445312 78.3125 128.363281 77.75 C 129.089844 77.824219 129.019531 76.667969 129.25 76.367188 C 129.449219 76.113281 129.125 76.148438 129.554688 75.84375 C 129.710938 75.738281 130.160156 75.988281 130.488281 75.753906 C 131.097656 75.308594 132.917969 71.078125 131.621094 70.757812 C 132.953125 70.527344 134.429688 68.460938 134.429688 68.460938 Z M 121.601562 92.484375 C 121.503906 92.320312 121.53125 92.183594 121.675781 92.074219 C 122.101562 92.324219 121.652344 92.542969 121.601562 92.484375 Z M 128.921875 78.449219 C 128.640625 78.464844 128.652344 78.289062 128.660156 78.070312 C 128.953125 78.085938 128.933594 78.265625 128.921875 78.449219 Z M 61.984375 96.597656 C 62.277344 96.558594 62.25 96.757812 62.230469 97.003906 C 61.929688 97.011719 61.960938 96.804688 61.984375 96.597656 Z M 70.457031 80.050781 C 70.546875 80.230469 70.511719 80.386719 70.351562 80.523438 C 69.929688 80.273438 70.40625 79.992188 70.457031 80.050781 Z M 35.578125 155.359375 C 35.652344 155.570312 35.605469 155.753906 35.4375 155.914062 C 35.441406 156.074219 35.476562 156.234375 35.496094 156.394531 C 35.246094 156.148438 34.820312 155.273438 35.578125 155.359375 Z M 59.71875 102.242188 C 59.933594 102.675781 59.253906 102.714844 59.34375 103.113281 C 59.34375 103.113281 58.71875 104.058594 58.703125 104.21875 C 58.671875 103.425781 58.933594 102.574219 59.71875 102.242188 Z M 67.695312 89.285156 C 67.695312 89.519531 67.589844 89.679688 67.378906 89.769531 L 67.207031 90.222656 C 67.144531 89.90625 67.027344 88.929688 67.695312 89.285156 Z M 41.136719 170.054688 C 41.136719 170.054688 42.019531 170.839844 42.179688 170.878906 C 41.371094 170.796875 40.496094 170.347656 40.34375 169.464844 C 40.816406 169.359375 40.722656 170.046875 41.136719 170.054688 Z M 34.910156 159.574219 C 35.074219 159.984375 34.453125 160.105469 34.640625 160.449219 C 34.695312 160.554688 35.25 160.632812 35.242188 160.488281 C 35.234375 160.796875 35.15625 161.5625 35.183594 161.53125 C 35.207031 161.6875 34.867188 162.335938 35.359375 162.761719 C 35.804688 162.816406 35.164062 161.761719 35.917969 162.226562 C 35.515625 162.652344 35.511719 163.265625 35.75 163.773438 C 36.015625 164.269531 36.441406 164.679688 36.722656 164.84375 C 36.523438 165.148438 36.667969 165.535156 36.96875 165.824219 C 37.261719 166.121094 37.621094 166.378906 37.734375 166.585938 C 37.925781 166.933594 38 166.582031 38.164062 167.195312 C 38.21875 167.417969 37.824219 167.730469 38.007812 168.191406 C 38.097656 168.402344 38.4375 168.816406 38.90625 169.296875 C 39.390625 169.757812 40.058594 170.214844 40.695312 170.628906 C 41.371094 170.984375 42.03125 171.273438 42.554688 171.367188 C 43.085938 171.445312 43.457031 171.359375 43.542969 171.03125 C 43.671875 171.757812 44.398438 172.570312 45.132812 173.167969 C 45.5 173.460938 45.859375 173.710938 46.148438 173.875 C 46.414062 174.042969 46.652344 174.144531 46.652344 174.144531 L 47.792969 170.8125 C 47.820312 170.828125 47.203125 170.894531 46.886719 171.042969 C 47.003906 170.898438 47.003906 170.753906 46.890625 170.605469 C 45.664062 170.558594 44.359375 169.257812 43.414062 168.46875 C 42.894531 168.074219 42.410156 167.707031 41.945312 167.355469 C 41.457031 167.03125 41.042969 166.664062 40.628906 166.296875 C 40.421875 166.113281 40.207031 165.933594 40.011719 165.734375 C 39.835938 165.519531 39.664062 165.300781 39.5 165.066406 C 39.15625 164.609375 38.851562 164.101562 38.707031 163.472656 C 38.570312 163.46875 38.472656 163.523438 38.40625 163.632812 C 37.910156 162.632812 37.589844 161.628906 37.179688 160.671875 C 37.066406 160.171875 36.960938 159.667969 36.871094 159.175781 C 36.832031 158.925781 36.78125 158.683594 36.765625 158.4375 C 36.78125 158.1875 36.804688 157.9375 36.839844 157.695312 C 36.902344 157.203125 36.882812 156.71875 36.8125 156.230469 C 36.765625 155.738281 36.777344 155.238281 36.730469 154.738281 C 36.695312 154.234375 36.65625 153.722656 36.65625 153.222656 C 36.726562 152.734375 36.835938 152.253906 37.015625 151.808594 C 37.15625 151.488281 37.679688 150.839844 37.933594 150.089844 C 38.375 149.097656 38.742188 148.101562 39.242188 147.140625 C 40.792969 144.484375 42.179688 141.707031 43.605469 138.945312 C 46.449219 133.472656 49.339844 128.027344 51.96875 122.445312 C 53.914062 118.304688 58.777344 110.003906 58.777344 110.003906 C 58.777344 110.003906 58.808594 109.300781 58.6875 108.972656 C 58.824219 109.101562 58.96875 109.105469 59.128906 108.988281 C 59.289062 107.699219 60.582031 106.292969 61.257812 105.109375 C 62.671875 102.628906 62.949219 100.5 64.738281 98.277344 C 64.667969 98.15625 64.570312 98.101562 64.441406 98.113281 C 65.785156 96.0625 66.484375 93.832031 67.738281 92.0625 C 68.996094 90.28125 69.03125 87.855469 70.113281 86.175781 C 70.304688 85.871094 70.988281 85.304688 71.371094 84.554688 C 71.886719 83.546875 72.332031 82.535156 72.914062 81.5625 C 74.511719 78.894531 75.863281 76.125 77.296875 73.359375 C 80.140625 67.886719 83.035156 62.441406 85.660156 56.859375 C 85.976562 56.191406 86.367188 55.410156 86.8125 54.554688 C 87.253906 53.730469 87.734375 52.828125 88.242188 51.886719 C 88.242188 51.886719 88.257812 51.863281 88.246094 51.882812 L 88.3125 51.792969 L 88.4375 51.609375 L 88.675781 51.25 C 88.832031 51.011719 88.972656 50.761719 89.121094 50.515625 C 89.390625 50.003906 89.65625 49.496094 89.855469 48.9375 C 90.261719 47.855469 90.519531 46.601562 90.222656 45.351562 C 90.128906 45.046875 90.019531 44.75 89.910156 44.476562 C 89.769531 44.214844 89.605469 43.976562 89.457031 43.753906 C 89.136719 43.328125 88.78125 43.046875 88.503906 42.808594 C 87.933594 42.4375 87.582031 42.246094 87.582031 42.246094 L 86.15625 45.46875 C 86.15625 45.46875 86.34375 45.480469 86.570312 45.492188 C 86.707031 45.492188 86.761719 45.546875 86.867188 45.578125 C 86.96875 45.609375 87.050781 45.65625 87.066406 45.714844 C 87.183594 45.875 87.261719 45.984375 87.285156 46.207031 C 87.28125 46.734375 87.203125 46.417969 86.992188 46.855469 C 87.441406 46.886719 87.523438 47.269531 87.425781 47.753906 C 87.335938 48.234375 87.105469 48.761719 87.222656 49.117188 C 86.550781 49.507812 86.796875 49.164062 86.25 49.800781 C 86.195312 49.867188 86.132812 49.941406 86.0625 50.023438 C 85.980469 50.132812 85.886719 50.253906 85.777344 50.394531 C 85.664062 50.605469 85.539062 50.835938 85.410156 51.074219 C 85.304688 51.285156 85.195312 51.507812 85.089844 51.722656 C 84.875 52.160156 84.667969 52.585938 84.503906 52.917969 C 84.21875 53.234375 83.992188 53.59375 83.828125 53.992188 C 83.800781 54.402344 83.9375 54.734375 84.234375 54.988281 C 84.15625 55.28125 83.390625 56.339844 83.175781 56.691406 C 82.933594 57.09375 82.597656 57.394531 82.347656 57.773438 C 82.042969 57.820312 81.816406 57.996094 81.664062 58.300781 C 81.710938 58.785156 81.671875 59.265625 81.554688 59.746094 C 81.410156 60.289062 81.148438 60.769531 80.769531 61.183594 C 80.566406 61.101562 80.371094 61.132812 80.175781 61.269531 C 79.796875 61.777344 80.074219 62.636719 79.972656 62.9375 C 79.855469 63.085938 79.394531 63.105469 79.320312 63.28125 C 79.167969 63.640625 79.226562 64.121094 79.054688 64.542969 C 78.953125 64.78125 78.722656 65.597656 78.582031 65.761719 C 78.308594 66.078125 77.8125 65.949219 77.558594 66.296875 C 77.351562 66.578125 77.625 66.789062 77.523438 66.949219 C 77.429688 67.089844 76.9375 67.765625 76.824219 68.023438 C 76.375 69.035156 76.738281 68.597656 76.640625 69.703125 C 76.472656 69.773438 76.328125 69.742188 76.203125 69.613281 C 76.230469 70.214844 75.59375 70.386719 75.402344 70.84375 C 75.1875 71.347656 75.554688 71.53125 75.460938 72.027344 C 74.527344 72.789062 75.277344 71.410156 74.542969 72.917969 C 74.183594 73.648438 73.628906 74.800781 73.347656 75.5625 C 73.160156 76.074219 73.410156 77.164062 73.230469 77.425781 C 72.953125 77.832031 72.207031 76.949219 71.746094 77.636719 C 72.222656 78.679688 71.804688 78.027344 71.328125 79.117188 C 71.097656 79.644531 71.246094 79.949219 70.890625 80.425781 C 70.449219 81.015625 70.171875 80.945312 69.667969 81.625 C 70.101562 81.746094 70.183594 82.023438 69.910156 82.464844 C 69.535156 82.601562 69.269531 82.863281 69.117188 83.253906 C 69.5625 83.425781 69.882812 82.738281 70.238281 83.351562 C 68.613281 83.769531 67.929688 85.429688 67.472656 86.742188 C 67.273438 87.3125 66.214844 87.421875 67.773438 87.71875 C 66.789062 88.859375 66.261719 88.699219 66.390625 90.269531 C 65.648438 90.730469 66.519531 89.484375 65.515625 90.585938 C 65.234375 90.894531 64.820312 91.027344 64.6875 91.488281 C 64.355469 92.640625 65.03125 91.976562 65.066406 92.617188 C 64.949219 93.023438 64.390625 92.734375 64.332031 93.097656 C 64.316406 93.207031 64.695312 93.625 64.777344 93.511719 C 64.601562 93.753906 64.050781 94.242188 64.066406 94.222656 C 63.96875 94.347656 63.273438 94.511719 63.304688 95.121094 C 63.566406 95.492188 63.894531 94.347656 64.070312 95.195312 C 62.878906 95.15625 62.46875 96.714844 62.515625 97.347656 C 61.769531 97.320312 61.769531 98.628906 61.511719 98.988281 C 61.289062 99.296875 61.628906 99.230469 61.160156 99.609375 C 60.996094 99.742188 60.542969 99.492188 60.1875 99.789062 C 59.527344 100.339844 57.375 105.296875 58.699219 105.558594 C 57.300781 105.929688 55.644531 108.394531 55.644531 108.394531 C 55.644531 108.394531 55.441406 109.59375 55.195312 110.039062 C 54.988281 110.417969 54.898438 110.679688 54.660156 111.046875 C 54.128906 111.863281 54.417969 111.296875 53.847656 111.890625 C 54.667969 112.324219 53.246094 113.859375 53.453125 114.628906 C 52.746094 115.066406 53.007812 114.679688 52.441406 115.433594 C 51.894531 116.160156 51.242188 117.660156 50.808594 118.503906 C 50.523438 118.820312 50.300781 119.179688 50.136719 119.574219 C 50.105469 119.988281 50.242188 120.320312 50.539062 120.570312 C 50.464844 120.863281 49.695312 121.925781 49.480469 122.277344 C 49.238281 122.679688 48.90625 122.976562 48.652344 123.355469 C 48.347656 123.40625 48.121094 123.582031 47.972656 123.886719 C 48.015625 124.367188 47.976562 124.851562 47.859375 125.332031 C 47.714844 125.875 47.453125 126.351562 47.074219 126.769531 C 46.871094 126.6875 46.675781 126.714844 46.480469 126.851562 C 46.105469 127.359375 46.378906 128.21875 46.277344 128.519531 C 46.164062 128.671875 45.699219 128.691406 45.625 128.867188 C 45.476562 129.226562 45.535156 129.707031 45.359375 130.128906 C 45.257812 130.367188 45.027344 131.183594 44.886719 131.34375 C 44.613281 131.664062 44.117188 131.535156 43.867188 131.878906 C 43.660156 132.164062 43.929688 132.375 43.828125 132.53125 C 43.738281 132.675781 43.242188 133.351562 43.128906 133.609375 C 42.679688 134.621094 43.042969 134.183594 42.945312 135.289062 C 42.777344 135.355469 42.632812 135.328125 42.511719 135.199219 C 42.539062 135.796875 41.898438 135.972656 41.707031 136.425781 C 41.492188 136.929688 41.859375 137.117188 41.765625 137.613281 C 40.832031 138.375 41.582031 136.996094 40.847656 138.5 C 40.488281 139.230469 39.933594 140.386719 39.652344 141.148438 C 39.464844 141.660156 39.714844 142.75 39.539062 143.007812 C 39.257812 143.414062 38.515625 142.53125 38.050781 143.222656 C 38.53125 144.265625 38.109375 143.613281 37.632812 144.699219 C 37.40625 145.234375 37.542969 145.519531 37.207031 146.023438 C 36.792969 146.652344 36.511719 146.597656 36.035156 147.339844 C 36.476562 147.429688 36.570312 147.710938 36.316406 148.175781 C 35.945312 148.351562 35.691406 148.648438 35.554688 149.058594 C 36.019531 149.171875 36.304688 148.460938 36.703125 149.035156 C 35.855469 149.304688 35.390625 149.945312 35.078125 150.6875 C 34.773438 151.429688 34.585938 152.242188 34.535156 152.96875 C 34.527344 153.605469 33.5625 154.074219 35.128906 153.851562 C 34.851562 154.5625 34.574219 154.945312 34.445312 155.328125 C 34.382812 155.519531 34.351562 155.710938 34.390625 155.941406 C 34.453125 156.175781 34.582031 156.453125 34.796875 156.796875 C 34.367188 157.585938 34.535156 155.996094 34.183594 157.523438 C 34.085938 157.957031 33.785156 158.316406 33.898438 158.824219 C 34.367188 160.050781 34.476562 159.046875 34.910156 159.574219 Z M 36.277344 164.890625 C 36.121094 165.15625 35.960938 165.003906 35.789062 164.851562 C 35.914062 164.574219 36.074219 164.722656 36.277344 164.890625 Z M 36.769531 145.644531 C 36.859375 145.828125 36.832031 145.996094 36.679688 146.144531 C 36.25 145.902344 36.714844 145.582031 36.769531 145.644531 Z M 234.574219 144.707031 C 234.332031 144.875 234.261719 144.6875 234.167969 144.457031 C 234.433594 144.3125 234.496094 144.511719 234.574219 144.707031 Z M 234.597656 163.296875 C 234.4375 163.179688 234.394531 163.023438 234.476562 162.828125 C 234.964844 162.859375 234.671875 163.328125 234.597656 163.296875 Z M 234.4375 89.070312 C 234.933594 89.09375 234.664062 89.589844 234.589844 89.558594 C 234.421875 89.433594 234.371094 89.273438 234.4375 89.070312 Z M 226.230469 72.214844 C 226.246094 71.90625 226.457031 71.96875 226.683594 72.027344 C 226.699219 72.328125 226.488281 72.269531 226.230469 72.214844 Z M 220.523438 70.003906 C 220.148438 70.3125 219.917969 69.660156 219.546875 69.84375 C 219.546875 69.84375 218.40625 69.550781 218.242188 69.585938 C 219 69.289062 219.984375 69.289062 220.523438 70.003906 Z M 231.210938 80.371094 C 231.046875 80.21875 231.003906 80.035156 231.078125 79.8125 C 231.003906 79.675781 230.898438 79.546875 230.808594 79.414062 C 231.144531 79.519531 231.917969 80.101562 231.210938 80.371094 Z M 232.832031 153.820312 C 232.730469 153.609375 232.75 153.421875 232.894531 153.246094 L 232.839844 152.765625 C 233.039062 153.015625 233.589844 153.835938 232.832031 153.820312 Z M 233.945312 137.703125 C 233.945312 137.703125 234.066406 136.578125 234.007812 136.429688 C 234.394531 137.117188 234.554688 137.996094 234.007812 138.648438 C 233.621094 138.363281 234.203125 138.015625 233.945312 137.703125 Z M 213.980469 71.589844 C 213.945312 71.769531 214.011719 71.902344 214.179688 71.980469 C 215.289062 71.460938 217.046875 72.023438 218.246094 72.292969 C 218.890625 72.40625 219.488281 72.511719 220.058594 72.609375 C 220.644531 72.675781 221.179688 72.8125 221.71875 72.949219 C 221.984375 73.019531 222.257812 73.082031 222.523438 73.171875 C 222.777344 73.28125 223.03125 73.398438 223.285156 73.527344 C 223.796875 73.777344 224.300781 74.09375 224.71875 74.585938 C 224.839844 74.527344 224.902344 74.433594 224.910156 74.308594 C 225.808594 74.96875 226.554688 75.714844 227.351562 76.378906 C 227.6875 76.773438 228.007812 77.171875 228.3125 77.570312 C 228.460938 77.773438 228.617188 77.964844 228.742188 78.175781 C 228.84375 78.40625 228.9375 78.636719 229.019531 78.871094 C 229.1875 79.339844 229.425781 79.757812 229.714844 80.160156 C 229.980469 80.574219 230.191406 81.027344 230.464844 81.453125 C 230.726562 81.886719 230.996094 82.320312 231.226562 82.765625 C 231.386719 83.234375 231.507812 83.710938 231.550781 84.1875 C 231.574219 84.539062 231.40625 85.351562 231.519531 86.136719 C 231.582031 87.21875 231.710938 88.273438 231.699219 89.355469 C 231.539062 92.429688 231.574219 95.535156 231.570312 98.640625 C 231.539062 104.808594 231.457031 110.972656 231.671875 117.140625 C 231.828125 121.710938 231.300781 131.316406 231.300781 131.316406 C 231.300781 131.316406 231.589844 131.960938 231.847656 132.191406 C 231.671875 132.140625 231.535156 132.203125 231.449219 132.382812 C 231.894531 133.601562 231.386719 135.441406 231.328125 136.800781 C 231.203125 139.65625 231.933594 141.675781 231.355469 144.46875 C 231.472656 144.546875 231.585938 144.550781 231.695312 144.480469 C 231.4375 146.921875 231.832031 149.222656 231.527344 151.371094 C 231.222656 153.527344 232.296875 155.703125 232.105469 157.691406 C 232.074219 158.050781 231.726562 158.867188 231.726562 159.707031 C 231.726562 160.839844 231.796875 161.941406 231.722656 163.074219 C 231.519531 166.179688 231.582031 169.261719 231.570312 172.375 C 231.539062 178.542969 231.457031 184.707031 231.671875 190.871094 C 231.695312 191.613281 231.703125 192.484375 231.699219 193.449219 C 231.683594 194.382812 231.667969 195.40625 231.648438 196.476562 C 231.648438 196.476562 231.644531 196.503906 231.644531 196.480469 L 231.628906 196.589844 L 231.601562 196.808594 L 231.554688 197.238281 C 231.523438 197.523438 231.511719 197.8125 231.496094 198.097656 C 231.484375 198.675781 231.484375 199.25 231.5625 199.835938 C 231.695312 200.984375 232.039062 202.214844 232.871094 203.195312 C 233.097656 203.421875 233.328125 203.636719 233.550781 203.828125 C 233.796875 203.996094 234.050781 204.136719 234.285156 204.265625 C 234.761719 204.496094 235.210938 204.585938 235.5625 204.671875 C 236.242188 204.738281 236.640625 204.75 236.640625 204.75 L 236.433594 201.230469 C 236.433594 201.230469 236.265625 201.304688 236.058594 201.398438 C 235.933594 201.460938 235.863281 201.4375 235.753906 201.460938 C 235.648438 201.476562 235.558594 201.472656 235.515625 201.429688 C 235.335938 201.339844 235.21875 201.277344 235.09375 201.089844 C 234.855469 200.617188 235.070312 200.863281 235.058594 200.382812 C 234.644531 200.554688 234.398438 200.253906 234.265625 199.777344 C 234.125 199.3125 234.089844 198.738281 233.820312 198.476562 C 234.238281 197.820312 234.175781 198.238281 234.371094 197.417969 C 234.394531 197.335938 234.414062 197.242188 234.4375 197.136719 C 234.464844 197.003906 234.488281 196.851562 234.523438 196.675781 C 234.527344 196.4375 234.53125 196.175781 234.535156 195.902344 C 234.535156 195.667969 234.53125 195.421875 234.527344 195.179688 C 234.519531 194.695312 234.507812 194.21875 234.5 193.851562 C 234.609375 193.4375 234.648438 193.015625 234.613281 192.585938 C 234.449219 192.207031 234.175781 191.972656 233.796875 191.886719 C 233.730469 191.589844 233.929688 190.296875 233.957031 189.886719 C 233.992188 189.417969 234.152344 188.996094 234.203125 188.546875 C 234.449219 188.363281 234.570312 188.101562 234.566406 187.765625 C 234.308594 187.355469 234.121094 186.910156 234.007812 186.425781 C 233.886719 185.878906 233.902344 185.332031 234.046875 184.789062 C 234.261719 184.769531 234.425781 184.65625 234.535156 184.445312 C 234.640625 183.820312 234 183.183594 233.953125 182.867188 C 233.988281 182.683594 234.394531 182.449219 234.378906 182.261719 C 234.347656 181.875 234.074219 181.472656 234.035156 181.019531 C 234.015625 180.757812 233.851562 179.929688 233.902344 179.71875 C 234 179.3125 234.496094 179.199219 234.566406 178.777344 C 234.617188 178.433594 234.28125 178.367188 234.300781 178.179688 C 234.316406 178.011719 234.445312 177.183594 234.429688 176.902344 C 234.367188 175.796875 234.242188 176.355469 233.824219 175.324219 C 233.945312 175.1875 234.085938 175.148438 234.253906 175.203125 C 233.957031 174.6875 234.445312 174.238281 234.410156 173.746094 C 234.367188 173.199219 233.957031 173.203125 233.816406 172.71875 C 234.296875 171.613281 234.261719 173.183594 234.226562 171.507812 C 234.207031 170.695312 234.175781 169.414062 234.074219 168.609375 C 234.007812 168.066406 233.289062 167.214844 233.328125 166.902344 C 233.390625 166.410156 234.457031 166.855469 234.554688 166.03125 C 233.652344 165.324219 234.324219 165.710938 234.25 164.527344 C 234.214844 163.949219 233.941406 163.75 234.039062 163.164062 C 234.164062 162.4375 234.441406 162.367188 234.578125 161.535156 C 234.140625 161.628906 233.941406 161.414062 233.980469 160.902344 C 234.253906 160.605469 234.367188 160.25 234.324219 159.835938 C 233.851562 159.886719 233.882812 160.644531 233.28125 160.261719 C 234.539062 159.148438 234.386719 157.355469 234.195312 155.980469 C 234.109375 155.382812 235.003906 154.800781 233.480469 155.25 C 233.835938 153.785156 234.375 153.683594 233.546875 152.351562 C 233.992188 151.601562 233.789062 153.105469 234.175781 151.667969 C 234.285156 151.265625 234.59375 150.957031 234.503906 150.484375 C 234.273438 149.3125 233.972656 150.210938 233.652344 149.65625 C 233.566406 149.238281 234.195312 149.242188 234.082031 148.894531 C 234.050781 148.789062 233.519531 148.589844 233.496094 148.726562 C 233.546875 148.433594 233.8125 147.746094 233.808594 147.769531 C 233.835938 147.613281 234.378906 147.152344 234.070312 146.621094 C 233.671875 146.410156 233.902344 147.578125 233.359375 146.910156 C 234.4375 146.394531 234.089844 144.824219 233.757812 144.28125 C 234.433594 143.964844 233.835938 142.800781 233.902344 142.363281 C 233.957031 141.988281 233.6875 142.203125 233.929688 141.652344 C 234.015625 141.457031 234.53125 141.472656 234.710938 141.046875 C 235.046875 140.253906 234.699219 134.859375 233.398438 135.234375 C 234.472656 134.265625 234.820312 131.316406 234.820312 131.316406 C 234.820312 131.316406 234.453125 130.15625 234.46875 129.648438 C 234.480469 129.214844 234.4375 128.941406 234.484375 128.507812 C 234.582031 127.539062 234.585938 128.175781 234.820312 127.386719 C 233.894531 127.371094 234.457031 125.359375 233.921875 124.773438 C 234.351562 124.058594 234.292969 124.519531 234.453125 123.589844 C 234.609375 122.695312 234.5 121.0625 234.5 120.117188 C 234.609375 119.703125 234.648438 119.28125 234.613281 118.851562 C 234.449219 118.472656 234.175781 118.238281 233.796875 118.152344 C 233.730469 117.855469 233.929688 116.5625 233.957031 116.152344 C 233.992188 115.683594 234.152344 115.265625 234.203125 114.8125 C 234.449219 114.628906 234.570312 114.367188 234.566406 114.03125 C 234.308594 113.621094 234.121094 113.175781 234.007812 112.695312 C 233.886719 112.144531 233.902344 111.597656 234.046875 111.054688 C 234.261719 111.039062 234.425781 110.921875 234.535156 110.710938 C 234.640625 110.085938 234 109.449219 233.953125 109.132812 C 233.988281 108.949219 234.394531 108.71875 234.378906 108.527344 C 234.347656 108.140625 234.074219 107.738281 234.035156 107.285156 C 234.015625 107.027344 233.851562 106.195312 233.902344 105.984375 C 234 105.578125 234.496094 105.46875 234.566406 105.042969 C 234.617188 104.699219 234.28125 104.632812 234.300781 104.445312 C 234.316406 104.277344 234.445312 103.449219 234.429688 103.167969 C 234.367188 102.0625 234.242188 102.621094 233.824219 101.589844 C 233.945312 101.453125 234.085938 101.414062 234.253906 101.472656 C 233.957031 100.953125 234.445312 100.503906 234.410156 100.011719 C 234.367188 99.46875 233.957031 99.46875 233.816406 98.984375 C 234.296875 97.882812 234.261719 99.449219 234.226562 97.773438 C 234.207031 96.960938 234.175781 95.679688 234.074219 94.875 C 234.007812 94.335938 233.289062 93.480469 233.328125 93.167969 C 233.390625 92.675781 234.457031 93.121094 234.554688 92.300781 C 233.652344 91.589844 234.324219 91.976562 234.25 90.792969 C 234.207031 90.214844 233.957031 90.023438 234.023438 89.421875 C 234.105469 88.671875 234.378906 88.59375 234.46875 87.714844 C 234.03125 87.835938 233.820312 87.628906 233.832031 87.097656 C 234.085938 86.773438 234.175781 86.390625 234.109375 85.96875 C 233.640625 86.074219 233.714844 86.84375 233.097656 86.511719 C 233.726562 85.886719 233.847656 85.101562 233.785156 84.300781 C 233.71875 83.503906 233.515625 82.691406 233.226562 82.019531 C 232.941406 81.453125 233.585938 80.59375 232.292969 81.507812 C 232.214844 80.746094 232.289062 80.28125 232.230469 79.882812 C 232.195312 79.683594 232.140625 79.5 232 79.308594 C 231.835938 79.132812 231.59375 78.945312 231.242188 78.734375 C 231.265625 77.839844 231.84375 79.332031 231.457031 77.808594 C 231.347656 77.382812 231.453125 76.921875 231.117188 76.523438 C 230.140625 75.644531 230.5 76.589844 229.875 76.316406 C 229.542969 76.027344 230.039062 75.640625 229.71875 75.414062 C 229.617188 75.347656 229.089844 75.53125 229.160156 75.65625 C 229.027344 75.378906 228.746094 74.660156 228.738281 74.699219 C 228.644531 74.574219 228.652344 73.84375 228.019531 73.6875 C 227.597656 73.84375 228.648438 74.488281 227.765625 74.421875 C 227.933594 73.855469 227.652344 73.308594 227.210938 72.964844 C 226.746094 72.648438 226.179688 72.476562 225.855469 72.460938 C 225.890625 72.09375 225.585938 71.820312 225.1875 71.695312 C 224.792969 71.566406 224.355469 71.503906 224.160156 71.371094 C 223.828125 71.152344 223.925781 71.496094 223.496094 71.023438 C 223.347656 70.851562 223.554688 70.394531 223.179688 70.070312 C 223.007812 69.921875 222.515625 69.707031 221.878906 69.496094 C 221.234375 69.308594 220.433594 69.207031 219.679688 69.128906 C 218.914062 69.121094 218.195312 69.167969 217.6875 69.320312 C 217.179688 69.496094 216.886719 69.742188 216.960938 70.070312 C 216.511719 69.484375 215.496094 69.09375 214.570312 68.898438 C 214.109375 68.804688 213.675781 68.746094 213.34375 68.734375 C 213.03125 68.707031 212.773438 68.722656 212.773438 68.722656 L 213.28125 72.207031 C 213.246094 72.207031 213.765625 71.867188 213.980469 71.589844"/></g></g></svg>